<svg width="1200" height="900" viewBox="0 0 1200 900" fill="none" xmlns="http://www.w3.org/2000/svg">
  <rect width="1200" height="900" fill="#D0D9D8"/>
  <rect y="0" width="1200" height="360" fill="#94A4B0"/>
  <rect y="360" width="1200" height="540" fill="#7B8F93"/>
  <ellipse cx="776" cy="432" rx="190" ry="252" fill="#334353"/>
  <circle cx="796" cy="260" r="78" fill="#526376"/>
  <path d="M564 736C630 650 719 612 820 612C926 612 1005 654 1098 736V900H564V736Z" fill="#526376"/>
  <path d="M0 762C179 716 356 703 531 716C630 723 684 744 760 762V900H0V762Z" fill="#C8CFCA"/>
  <path d="M166 98L132 840" stroke="#E8F0EF" stroke-width="8" stroke-linecap="round" stroke-dasharray="12 18"/>
  <path d="M282 74L238 842" stroke="#E8F0EF" stroke-width="8" stroke-linecap="round" stroke-dasharray="12 18"/>
  <path d="M396 112L364 842" stroke="#E8F0EF" stroke-width="8" stroke-linecap="round" stroke-dasharray="12 18"/>
  <text x="76" y="826" fill="#EEF3ED" font-size="52" font-family="Georgia, serif">after rain pause</text>
</svg>
