<svg width="1200" height="900" viewBox="0 0 1200 900" fill="none" xmlns="http://www.w3.org/2000/svg">
  <rect width="1200" height="900" fill="#D9CAB7"/>
  <rect x="0" y="0" width="534" height="900" fill="#F6EFE2"/>
  <rect x="88" y="80" width="360" height="560" rx="8" fill="#F0E5D4"/>
  <path d="M268 80V640" stroke="#D8C7AF" stroke-width="10"/>
  <path d="M88 360H448" stroke="#D8C7AF" stroke-width="10"/>
  <ellipse cx="760" cy="452" rx="182" ry="242" fill="#654D42"/>
  <circle cx="780" cy="278" r="78" fill="#826457"/>
  <path d="M564 756C633 668 700 626 794 617C922 605 1004 654 1108 756V900H564V756Z" fill="#A27866"/>
  <path d="M0 756C107 706 186 690 288 694C415 699 473 728 534 756V900H0V756Z" fill="#E6D9C8"/>
  <text x="74" y="828" fill="#6C5A4A" font-size="50" font-family="Georgia, serif">atelier window</text>
</svg>
