<svg width="1200" height="1400" viewBox="0 0 1200 1400" fill="none" xmlns="http://www.w3.org/2000/svg">
  <rect width="1200" height="1400" fill="#191726"/>
  <circle cx="910" cy="198" r="104" fill="#F6E8B1"/>
  <path d="M0 502C190 444 364 431 542 456C695 478 796 518 930 522C1055 526 1128 498 1200 466V1400H0V502Z" fill="#111621"/>
  <rect x="106" y="532" width="228" height="382" rx="14" fill="#D14B32"/>
  <rect x="378" y="470" width="202" height="444" rx="14" fill="#F29C38"/>
  <rect x="634" y="556" width="190" height="358" rx="14" fill="#198A83"/>
  <rect x="872" y="498" width="198" height="416" rx="14" fill="#5D67D6"/>
  <path d="M0 1124C195 1060 374 1044 580 1058C802 1073 979 1114 1200 1180V1400H0V1124Z" fill="#251B2A"/>
  <circle cx="268" cy="1006" r="46" fill="#F5EAD6"/>
  <circle cx="684" cy="1030" r="36" fill="#F5EAD6"/>
  <circle cx="994" cy="998" r="40" fill="#F5EAD6"/>
  <text x="78" y="1326" fill="#F5EAD6" font-size="54" font-family="Georgia, serif">moon market</text>
</svg>
