<svg width="1200" height="1400" viewBox="0 0 1200 1400" fill="none" xmlns="http://www.w3.org/2000/svg">
  <rect width="1200" height="1400" fill="#111621"/>
  <rect x="0" y="0" width="1200" height="420" fill="url(#nightGlow)"/>
  <rect x="132" y="120" width="168" height="610" rx="18" fill="#FF6B57"/>
  <rect x="344" y="72" width="132" height="562" rx="18" fill="#18D0E8"/>
  <rect x="516" y="164" width="148" height="734" rx="18" fill="#FFC857"/>
  <rect x="716" y="88" width="156" height="658" rx="18" fill="#6F7BF7"/>
  <rect x="912" y="214" width="120" height="522" rx="18" fill="#F26CA7"/>
  <path d="M84 956L1112 724" stroke="#F8F3E9" stroke-width="18" stroke-dasharray="28 28"/>
  <path d="M74 1128L1092 896" stroke="#F8F3E9" stroke-width="18" stroke-dasharray="28 28"/>
  <path d="M0 1264C174 1188 315 1148 528 1136C804 1121 971 1171 1200 1264V1400H0V1264Z" fill="#1E2A3A"/>
  <circle cx="220" cy="1022" r="42" fill="#F8F3E9"/>
  <circle cx="362" cy="992" r="36" fill="#F8F3E9"/>
  <circle cx="820" cy="904" r="28" fill="#F8F3E9"/>
  <text x="88" y="1320" fill="#F8F3E9" font-size="54" font-family="Georgia, serif">neon crossing</text>
  <defs>
    <linearGradient id="nightGlow" x1="600" y1="0" x2="600" y2="420" gradientUnits="userSpaceOnUse">
      <stop stop-color="#2B1F42"/>
      <stop offset="1" stop-color="#111621"/>
    </linearGradient>
  </defs>
</svg>
