<svg width="1200" height="900" viewBox="0 0 1200 900" fill="none" xmlns="http://www.w3.org/2000/svg">
  <rect width="1200" height="900" rx="44" fill="#E7F3FF"/>
  <rect width="1200" height="900" rx="44" fill="url(#paint0_linear_40_1)"/>
  <path d="M80 798L434 136" stroke="#4F2E30" stroke-width="18" stroke-linecap="round"/>
  <path d="M410 700L1068 246" stroke="#4F2E30" stroke-width="16" stroke-linecap="round"/>
  <path d="M536 858L1122 562" stroke="#4F2E30" stroke-width="14" stroke-linecap="round"/>
  <g fill="#FFF7FB">
    <circle cx="462" cy="232" r="34"/>
    <circle cx="554" cy="352" r="30"/>
    <circle cx="654" cy="414" r="36"/>
    <circle cx="794" cy="314" r="32"/>
    <circle cx="902" cy="476" r="34"/>
    <circle cx="1008" cy="620" r="32"/>
    <circle cx="268" cy="448" r="28"/>
    <circle cx="314" cy="618" r="34"/>
  </g>
  <g fill="#F9D4E2" fill-opacity="0.92">
    <circle cx="448" cy="210" r="10"/>
    <circle cx="538" cy="330" r="10"/>
    <circle cx="640" cy="394" r="10"/>
    <circle cx="780" cy="292" r="10"/>
    <circle cx="888" cy="452" r="10"/>
    <circle cx="992" cy="596" r="10"/>
    <circle cx="252" cy="424" r="10"/>
    <circle cx="300" cy="594" r="10"/>
  </g>
  <text x="88" y="112" fill="#6A4C50" font-family="'Avenir Next','PingFang SC',sans-serif" font-size="34" letter-spacing="6">SHANGHAI · DANING PARK</text>
  <text x="88" y="180" fill="#5A3B41" font-family="'Baskerville','Songti SC',serif" font-size="72">樱枝向天</text>
  <text x="88" y="236" fill="#7E6A70" font-family="'PingFang SC',sans-serif" font-size="28">2026.03.15 · 上海市静安区 · 大宁公园</text>
  <text x="88" y="822" fill="#60748A" font-family="'PingFang SC',sans-serif" font-size="28">FUJIFILM X-H2 · FUJINON XF 16-55mm</text>
  <defs>
    <linearGradient id="paint0_linear_40_1" x1="110" y1="70" x2="1128" y2="846" gradientUnits="userSpaceOnUse">
      <stop stop-color="#BEE1FF"/>
      <stop offset="0.5" stop-color="#DCEEFF"/>
      <stop offset="1" stop-color="#FCECF5"/>
    </linearGradient>
  </defs>
</svg>
