<svg xmlns="http://www.w3.org/2000/svg" xmlns:xlink="http://www.w3.org/1999/xlink" width="980" height="3208" viewBox="0 0 980 3208">
<rect width="100%" height="100%" fill="#f4f7f8"/>
<text x="20" y="32" font-size="26" font-family="PingFang SC, Helvetica, Arial" fill="#13212b">上海国际赛车场</text>
<text x="20" y="58" font-size="14" font-family="PingFang SC, Helvetica, Arial" fill="#607181">嘉定区 · 2026.03.14</text>
<clipPath id="clip0"><rect x="20" y="80" rx="14" ry="14" width="220" height="160"/></clipPath>
<rect x="20" y="80" rx="14" ry="14" width="220" height="160" fill="#dfe7eb" stroke="#d0d9de"/>
<image xlink:href="file:///Users/azhangyiming666/Downloads/Codex/assets/photos/ZYMM0043-p.jpg" href="file:///Users/azhangyiming666/Downloads/Codex/assets/photos/ZYMM0043-p.jpg" x="20" y="80" width="220" height="160" preserveAspectRatio="xMidYMid slice" clip-path="url(#clip0)"/>
<text x="28" y="258" font-size="14" font-family="Menlo, Monaco, monospace" fill="#13212b">1. ZYMM0043-p.jpg</text>
<text x="28" y="275" font-size="11" font-family="PingFang SC, Helvetica, Arial" fill="#607181">赛车 · 赛道 · 上海国际赛车场 · 速度 · 人群</text>
<clipPath id="clip1"><rect x="260" y="80" rx="14" ry="14" width="220" height="160"/></clipPath>
<rect x="260" y="80" rx="14" ry="14" width="220" height="160" fill="#dfe7eb" stroke="#d0d9de"/>
<image xlink:href="file:///Users/azhangyiming666/Downloads/Codex/assets/photos/ZYMM0059-p.jpg" href="file:///Users/azhangyiming666/Downloads/Codex/assets/photos/ZYMM0059-p.jpg" x="260" y="80" width="220" height="160" preserveAspectRatio="xMidYMid slice" clip-path="url(#clip1)"/>
<text x="268" y="258" font-size="14" font-family="Menlo, Monaco, monospace" fill="#13212b">2. ZYMM0059-p.jpg</text>
<text x="268" y="275" font-size="11" font-family="PingFang SC, Helvetica, Arial" fill="#607181">赛车 · 赛道 · 上海国际赛车场 · 速度 · 人群</text>
<clipPath id="clip2"><rect x="500" y="80" rx="14" ry="14" width="220" height="160"/></clipPath>
<rect x="500" y="80" rx="14" ry="14" width="220" height="160" fill="#dfe7eb" stroke="#d0d9de"/>
<image xlink:href="file:///Users/azhangyiming666/Downloads/Codex/assets/photos/ZYMM0061-p.jpg" href="file:///Users/azhangyiming666/Downloads/Codex/assets/photos/ZYMM0061-p.jpg" x="500" y="80" width="220" height="160" preserveAspectRatio="xMidYMid slice" clip-path="url(#clip2)"/>
<text x="508" y="258" font-size="14" font-family="Menlo, Monaco, monospace" fill="#13212b">3. ZYMM0061-p.jpg</text>
<text x="508" y="275" font-size="11" font-family="PingFang SC, Helvetica, Arial" fill="#607181">赛车 · 赛道 · 上海国际赛车场 · 速度 · 人群</text>
<clipPath id="clip3"><rect x="740" y="80" rx="14" ry="14" width="220" height="160"/></clipPath>
<rect x="740" y="80" rx="14" ry="14" width="220" height="160" fill="#dfe7eb" stroke="#d0d9de"/>
<image xlink:href="file:///Users/azhangyiming666/Downloads/Codex/assets/photos/ZYMM0070-p.jpg" href="file:///Users/azhangyiming666/Downloads/Codex/assets/photos/ZYMM0070-p.jpg" x="740" y="80" width="220" height="160" preserveAspectRatio="xMidYMid slice" clip-path="url(#clip3)"/>
<text x="748" y="258" font-size="14" font-family="Menlo, Monaco, monospace" fill="#13212b">4. ZYMM0070-p.jpg</text>
<text x="748" y="275" font-size="11" font-family="PingFang SC, Helvetica, Arial" fill="#607181">赛车 · 赛道 · 上海国际赛车场 · 速度 · 人群</text>
<clipPath id="clip4"><rect x="20" y="302" rx="14" ry="14" width="220" height="160"/></clipPath>
<rect x="20" y="302" rx="14" ry="14" width="220" height="160" fill="#dfe7eb" stroke="#d0d9de"/>
<image xlink:href="file:///Users/azhangyiming666/Downloads/Codex/assets/photos/ZYMM0077-p.jpg" href="file:///Users/azhangyiming666/Downloads/Codex/assets/photos/ZYMM0077-p.jpg" x="20" y="302" width="220" height="160" preserveAspectRatio="xMidYMid slice" clip-path="url(#clip4)"/>
<text x="28" y="480" font-size="14" font-family="Menlo, Monaco, monospace" fill="#13212b">5. ZYMM0077-p.jpg</text>
<text x="28" y="497" font-size="11" font-family="PingFang SC, Helvetica, Arial" fill="#607181">赛车 · 赛道 · 上海国际赛车场 · 速度 · 人群</text>
<clipPath id="clip5"><rect x="260" y="302" rx="14" ry="14" width="220" height="160"/></clipPath>
<rect x="260" y="302" rx="14" ry="14" width="220" height="160" fill="#dfe7eb" stroke="#d0d9de"/>
<image xlink:href="file:///Users/azhangyiming666/Downloads/Codex/assets/photos/ZYMM0082-p.jpg" href="file:///Users/azhangyiming666/Downloads/Codex/assets/photos/ZYMM0082-p.jpg" x="260" y="302" width="220" height="160" preserveAspectRatio="xMidYMid slice" clip-path="url(#clip5)"/>
<text x="268" y="480" font-size="14" font-family="Menlo, Monaco, monospace" fill="#13212b">6. ZYMM0082-p.jpg</text>
<text x="268" y="497" font-size="11" font-family="PingFang SC, Helvetica, Arial" fill="#607181">赛车 · 赛道 · 上海国际赛车场 · 速度 · 人群</text>
<clipPath id="clip6"><rect x="500" y="302" rx="14" ry="14" width="220" height="160"/></clipPath>
<rect x="500" y="302" rx="14" ry="14" width="220" height="160" fill="#dfe7eb" stroke="#d0d9de"/>
<image xlink:href="file:///Users/azhangyiming666/Downloads/Codex/assets/photos/ZYMM0092-p.jpg" href="file:///Users/azhangyiming666/Downloads/Codex/assets/photos/ZYMM0092-p.jpg" x="500" y="302" width="220" height="160" preserveAspectRatio="xMidYMid slice" clip-path="url(#clip6)"/>
<text x="508" y="480" font-size="14" font-family="Menlo, Monaco, monospace" fill="#13212b">7. ZYMM0092-p.jpg</text>
<text x="508" y="497" font-size="11" font-family="PingFang SC, Helvetica, Arial" fill="#607181">赛车 · 赛道 · 上海国际赛车场 · 速度 · 人群</text>
<clipPath id="clip7"><rect x="740" y="302" rx="14" ry="14" width="220" height="160"/></clipPath>
<rect x="740" y="302" rx="14" ry="14" width="220" height="160" fill="#dfe7eb" stroke="#d0d9de"/>
<image xlink:href="file:///Users/azhangyiming666/Downloads/Codex/assets/photos/ZYMM0112-p.jpg" href="file:///Users/azhangyiming666/Downloads/Codex/assets/photos/ZYMM0112-p.jpg" x="740" y="302" width="220" height="160" preserveAspectRatio="xMidYMid slice" clip-path="url(#clip7)"/>
<text x="748" y="480" font-size="14" font-family="Menlo, Monaco, monospace" fill="#13212b">8. ZYMM0112-p.jpg</text>
<text x="748" y="497" font-size="11" font-family="PingFang SC, Helvetica, Arial" fill="#607181">赛车 · 赛道 · 上海国际赛车场 · 速度 · 人群</text>
<clipPath id="clip8"><rect x="20" y="524" rx="14" ry="14" width="220" height="160"/></clipPath>
<rect x="20" y="524" rx="14" ry="14" width="220" height="160" fill="#dfe7eb" stroke="#d0d9de"/>
<image xlink:href="file:///Users/azhangyiming666/Downloads/Codex/assets/photos/ZYMM0121-p.jpg" href="file:///Users/azhangyiming666/Downloads/Codex/assets/photos/ZYMM0121-p.jpg" x="20" y="524" width="220" height="160" preserveAspectRatio="xMidYMid slice" clip-path="url(#clip8)"/>
<text x="28" y="702" font-size="14" font-family="Menlo, Monaco, monospace" fill="#13212b">9. ZYMM0121-p.jpg</text>
<text x="28" y="719" font-size="11" font-family="PingFang SC, Helvetica, Arial" fill="#607181">赛车 · 赛道 · 上海国际赛车场 · 速度 · 人群</text>
<clipPath id="clip9"><rect x="260" y="524" rx="14" ry="14" width="220" height="160"/></clipPath>
<rect x="260" y="524" rx="14" ry="14" width="220" height="160" fill="#dfe7eb" stroke="#d0d9de"/>
<image xlink:href="file:///Users/azhangyiming666/Downloads/Codex/assets/photos/ZYMM0202-p.jpg" href="file:///Users/azhangyiming666/Downloads/Codex/assets/photos/ZYMM0202-p.jpg" x="260" y="524" width="220" height="160" preserveAspectRatio="xMidYMid slice" clip-path="url(#clip9)"/>
<text x="268" y="702" font-size="14" font-family="Menlo, Monaco, monospace" fill="#13212b">10. ZYMM0202-p.jpg</text>
<text x="268" y="719" font-size="11" font-family="PingFang SC, Helvetica, Arial" fill="#607181">赛车 · 赛道 · 上海国际赛车场 · 速度 · 人群</text>
<clipPath id="clip10"><rect x="500" y="524" rx="14" ry="14" width="220" height="160"/></clipPath>
<rect x="500" y="524" rx="14" ry="14" width="220" height="160" fill="#dfe7eb" stroke="#d0d9de"/>
<image xlink:href="file:///Users/azhangyiming666/Downloads/Codex/assets/photos/ZYMM0282-p.jpg" href="file:///Users/azhangyiming666/Downloads/Codex/assets/photos/ZYMM0282-p.jpg" x="500" y="524" width="220" height="160" preserveAspectRatio="xMidYMid slice" clip-path="url(#clip10)"/>
<text x="508" y="702" font-size="14" font-family="Menlo, Monaco, monospace" fill="#13212b">11. ZYMM0282-p.jpg</text>
<text x="508" y="719" font-size="11" font-family="PingFang SC, Helvetica, Arial" fill="#607181">赛车 · 赛道 · 上海国际赛车场 · 速度 · 人群</text>
<clipPath id="clip11"><rect x="740" y="524" rx="14" ry="14" width="220" height="160"/></clipPath>
<rect x="740" y="524" rx="14" ry="14" width="220" height="160" fill="#dfe7eb" stroke="#d0d9de"/>
<image xlink:href="file:///Users/azhangyiming666/Downloads/Codex/assets/photos/ZYMM0293-p.jpg" href="file:///Users/azhangyiming666/Downloads/Codex/assets/photos/ZYMM0293-p.jpg" x="740" y="524" width="220" height="160" preserveAspectRatio="xMidYMid slice" clip-path="url(#clip11)"/>
<text x="748" y="702" font-size="14" font-family="Menlo, Monaco, monospace" fill="#13212b">12. ZYMM0293-p.jpg</text>
<text x="748" y="719" font-size="11" font-family="PingFang SC, Helvetica, Arial" fill="#607181">赛车 · 赛道 · 上海国际赛车场 · 速度 · 人群</text>
<clipPath id="clip12"><rect x="20" y="746" rx="14" ry="14" width="220" height="160"/></clipPath>
<rect x="20" y="746" rx="14" ry="14" width="220" height="160" fill="#dfe7eb" stroke="#d0d9de"/>
<image xlink:href="file:///Users/azhangyiming666/Downloads/Codex/assets/photos/ZYMM8546-p.jpg" href="file:///Users/azhangyiming666/Downloads/Codex/assets/photos/ZYMM8546-p.jpg" x="20" y="746" width="220" height="160" preserveAspectRatio="xMidYMid slice" clip-path="url(#clip12)"/>
<text x="28" y="924" font-size="14" font-family="Menlo, Monaco, monospace" fill="#13212b">13. ZYMM8546-p.jpg</text>
<text x="28" y="941" font-size="11" font-family="PingFang SC, Helvetica, Arial" fill="#607181">赛车 · 赛道 · 上海国际赛车场 · 速度 · 人群</text>
<clipPath id="clip13"><rect x="260" y="746" rx="14" ry="14" width="220" height="160"/></clipPath>
<rect x="260" y="746" rx="14" ry="14" width="220" height="160" fill="#dfe7eb" stroke="#d0d9de"/>
<image xlink:href="file:///Users/azhangyiming666/Downloads/Codex/assets/photos/ZYMM8651-p.jpg" href="file:///Users/azhangyiming666/Downloads/Codex/assets/photos/ZYMM8651-p.jpg" x="260" y="746" width="220" height="160" preserveAspectRatio="xMidYMid slice" clip-path="url(#clip13)"/>
<text x="268" y="924" font-size="14" font-family="Menlo, Monaco, monospace" fill="#13212b">14. ZYMM8651-p.jpg</text>
<text x="268" y="941" font-size="11" font-family="PingFang SC, Helvetica, Arial" fill="#607181">赛车 · 赛道 · 上海国际赛车场 · 速度 · 人群</text>
<clipPath id="clip14"><rect x="500" y="746" rx="14" ry="14" width="220" height="160"/></clipPath>
<rect x="500" y="746" rx="14" ry="14" width="220" height="160" fill="#dfe7eb" stroke="#d0d9de"/>
<image xlink:href="file:///Users/azhangyiming666/Downloads/Codex/assets/photos/ZYMM8675-p.jpg" href="file:///Users/azhangyiming666/Downloads/Codex/assets/photos/ZYMM8675-p.jpg" x="500" y="746" width="220" height="160" preserveAspectRatio="xMidYMid slice" clip-path="url(#clip14)"/>
<text x="508" y="924" font-size="14" font-family="Menlo, Monaco, monospace" fill="#13212b">15. ZYMM8675-p.jpg</text>
<text x="508" y="941" font-size="11" font-family="PingFang SC, Helvetica, Arial" fill="#607181">赛车 · 赛道 · 上海国际赛车场 · 速度 · 人群</text>
<clipPath id="clip15"><rect x="740" y="746" rx="14" ry="14" width="220" height="160"/></clipPath>
<rect x="740" y="746" rx="14" ry="14" width="220" height="160" fill="#dfe7eb" stroke="#d0d9de"/>
<image xlink:href="file:///Users/azhangyiming666/Downloads/Codex/assets/photos/ZYMM8759-p.jpg" href="file:///Users/azhangyiming666/Downloads/Codex/assets/photos/ZYMM8759-p.jpg" x="740" y="746" width="220" height="160" preserveAspectRatio="xMidYMid slice" clip-path="url(#clip15)"/>
<text x="748" y="924" font-size="14" font-family="Menlo, Monaco, monospace" fill="#13212b">16. ZYMM8759-p.jpg</text>
<text x="748" y="941" font-size="11" font-family="PingFang SC, Helvetica, Arial" fill="#607181">赛车 · 赛道 · 上海国际赛车场 · 速度 · 人群</text>
<clipPath id="clip16"><rect x="20" y="968" rx="14" ry="14" width="220" height="160"/></clipPath>
<rect x="20" y="968" rx="14" ry="14" width="220" height="160" fill="#dfe7eb" stroke="#d0d9de"/>
<image xlink:href="file:///Users/azhangyiming666/Downloads/Codex/assets/photos/ZYMM8770-p.jpg" href="file:///Users/azhangyiming666/Downloads/Codex/assets/photos/ZYMM8770-p.jpg" x="20" y="968" width="220" height="160" preserveAspectRatio="xMidYMid slice" clip-path="url(#clip16)"/>
<text x="28" y="1146" font-size="14" font-family="Menlo, Monaco, monospace" fill="#13212b">17. ZYMM8770-p.jpg</text>
<text x="28" y="1163" font-size="11" font-family="PingFang SC, Helvetica, Arial" fill="#607181">赛车 · 赛道 · 上海国际赛车场 · 速度 · 人群</text>
<clipPath id="clip17"><rect x="260" y="968" rx="14" ry="14" width="220" height="160"/></clipPath>
<rect x="260" y="968" rx="14" ry="14" width="220" height="160" fill="#dfe7eb" stroke="#d0d9de"/>
<image xlink:href="file:///Users/azhangyiming666/Downloads/Codex/assets/photos/ZYMM8796-p.jpg" href="file:///Users/azhangyiming666/Downloads/Codex/assets/photos/ZYMM8796-p.jpg" x="260" y="968" width="220" height="160" preserveAspectRatio="xMidYMid slice" clip-path="url(#clip17)"/>
<text x="268" y="1146" font-size="14" font-family="Menlo, Monaco, monospace" fill="#13212b">18. ZYMM8796-p.jpg</text>
<text x="268" y="1163" font-size="11" font-family="PingFang SC, Helvetica, Arial" fill="#607181">赛车 · 赛道 · 上海国际赛车场 · 速度 · 人群</text>
<clipPath id="clip18"><rect x="500" y="968" rx="14" ry="14" width="220" height="160"/></clipPath>
<rect x="500" y="968" rx="14" ry="14" width="220" height="160" fill="#dfe7eb" stroke="#d0d9de"/>
<image xlink:href="file:///Users/azhangyiming666/Downloads/Codex/assets/photos/ZYMM8838-p.jpg" href="file:///Users/azhangyiming666/Downloads/Codex/assets/photos/ZYMM8838-p.jpg" x="500" y="968" width="220" height="160" preserveAspectRatio="xMidYMid slice" clip-path="url(#clip18)"/>
<text x="508" y="1146" font-size="14" font-family="Menlo, Monaco, monospace" fill="#13212b">19. ZYMM8838-p.jpg</text>
<text x="508" y="1163" font-size="11" font-family="PingFang SC, Helvetica, Arial" fill="#607181">赛车 · 赛道 · 上海国际赛车场 · 速度 · 人群</text>
<clipPath id="clip19"><rect x="740" y="968" rx="14" ry="14" width="220" height="160"/></clipPath>
<rect x="740" y="968" rx="14" ry="14" width="220" height="160" fill="#dfe7eb" stroke="#d0d9de"/>
<image xlink:href="file:///Users/azhangyiming666/Downloads/Codex/assets/photos/ZYMM8880-p.jpg" href="file:///Users/azhangyiming666/Downloads/Codex/assets/photos/ZYMM8880-p.jpg" x="740" y="968" width="220" height="160" preserveAspectRatio="xMidYMid slice" clip-path="url(#clip19)"/>
<text x="748" y="1146" font-size="14" font-family="Menlo, Monaco, monospace" fill="#13212b">20. ZYMM8880-p.jpg</text>
<text x="748" y="1163" font-size="11" font-family="PingFang SC, Helvetica, Arial" fill="#607181">赛车 · 赛道 · 上海国际赛车场 · 速度 · 人群</text>
<clipPath id="clip20"><rect x="20" y="1190" rx="14" ry="14" width="220" height="160"/></clipPath>
<rect x="20" y="1190" rx="14" ry="14" width="220" height="160" fill="#dfe7eb" stroke="#d0d9de"/>
<image xlink:href="file:///Users/azhangyiming666/Downloads/Codex/assets/photos/ZYMM8888-p.jpg" href="file:///Users/azhangyiming666/Downloads/Codex/assets/photos/ZYMM8888-p.jpg" x="20" y="1190" width="220" height="160" preserveAspectRatio="xMidYMid slice" clip-path="url(#clip20)"/>
<text x="28" y="1368" font-size="14" font-family="Menlo, Monaco, monospace" fill="#13212b">21. ZYMM8888-p.jpg</text>
<text x="28" y="1385" font-size="11" font-family="PingFang SC, Helvetica, Arial" fill="#607181">赛车 · 赛道 · 上海国际赛车场 · 速度 · 人群</text>
<clipPath id="clip21"><rect x="260" y="1190" rx="14" ry="14" width="220" height="160"/></clipPath>
<rect x="260" y="1190" rx="14" ry="14" width="220" height="160" fill="#dfe7eb" stroke="#d0d9de"/>
<image xlink:href="file:///Users/azhangyiming666/Downloads/Codex/assets/photos/ZYMM9041-p.jpg" href="file:///Users/azhangyiming666/Downloads/Codex/assets/photos/ZYMM9041-p.jpg" x="260" y="1190" width="220" height="160" preserveAspectRatio="xMidYMid slice" clip-path="url(#clip21)"/>
<text x="268" y="1368" font-size="14" font-family="Menlo, Monaco, monospace" fill="#13212b">22. ZYMM9041-p.jpg</text>
<text x="268" y="1385" font-size="11" font-family="PingFang SC, Helvetica, Arial" fill="#607181">赛车 · 赛道 · 上海国际赛车场 · 速度 · 人群</text>
<clipPath id="clip22"><rect x="500" y="1190" rx="14" ry="14" width="220" height="160"/></clipPath>
<rect x="500" y="1190" rx="14" ry="14" width="220" height="160" fill="#dfe7eb" stroke="#d0d9de"/>
<image xlink:href="file:///Users/azhangyiming666/Downloads/Codex/assets/photos/ZYMM9064-p.jpg" href="file:///Users/azhangyiming666/Downloads/Codex/assets/photos/ZYMM9064-p.jpg" x="500" y="1190" width="220" height="160" preserveAspectRatio="xMidYMid slice" clip-path="url(#clip22)"/>
<text x="508" y="1368" font-size="14" font-family="Menlo, Monaco, monospace" fill="#13212b">23. ZYMM9064-p.jpg</text>
<text x="508" y="1385" font-size="11" font-family="PingFang SC, Helvetica, Arial" fill="#607181">赛车 · 赛道 · 上海国际赛车场 · 速度 · 人群</text>
<clipPath id="clip23"><rect x="740" y="1190" rx="14" ry="14" width="220" height="160"/></clipPath>
<rect x="740" y="1190" rx="14" ry="14" width="220" height="160" fill="#dfe7eb" stroke="#d0d9de"/>
<image xlink:href="file:///Users/azhangyiming666/Downloads/Codex/assets/photos/ZYMM9078-p.jpg" href="file:///Users/azhangyiming666/Downloads/Codex/assets/photos/ZYMM9078-p.jpg" x="740" y="1190" width="220" height="160" preserveAspectRatio="xMidYMid slice" clip-path="url(#clip23)"/>
<text x="748" y="1368" font-size="14" font-family="Menlo, Monaco, monospace" fill="#13212b">24. ZYMM9078-p.jpg</text>
<text x="748" y="1385" font-size="11" font-family="PingFang SC, Helvetica, Arial" fill="#607181">赛车 · 赛道 · 上海国际赛车场 · 速度 · 人群</text>
<clipPath id="clip24"><rect x="20" y="1412" rx="14" ry="14" width="220" height="160"/></clipPath>
<rect x="20" y="1412" rx="14" ry="14" width="220" height="160" fill="#dfe7eb" stroke="#d0d9de"/>
<image xlink:href="file:///Users/azhangyiming666/Downloads/Codex/assets/photos/ZYMM9162-p.jpg" href="file:///Users/azhangyiming666/Downloads/Codex/assets/photos/ZYMM9162-p.jpg" x="20" y="1412" width="220" height="160" preserveAspectRatio="xMidYMid slice" clip-path="url(#clip24)"/>
<text x="28" y="1590" font-size="14" font-family="Menlo, Monaco, monospace" fill="#13212b">25. ZYMM9162-p.jpg</text>
<text x="28" y="1607" font-size="11" font-family="PingFang SC, Helvetica, Arial" fill="#607181">赛车 · 赛道 · 上海国际赛车场 · 速度 · 人群</text>
<clipPath id="clip25"><rect x="260" y="1412" rx="14" ry="14" width="220" height="160"/></clipPath>
<rect x="260" y="1412" rx="14" ry="14" width="220" height="160" fill="#dfe7eb" stroke="#d0d9de"/>
<image xlink:href="file:///Users/azhangyiming666/Downloads/Codex/assets/photos/ZYMM9229-p.jpg" href="file:///Users/azhangyiming666/Downloads/Codex/assets/photos/ZYMM9229-p.jpg" x="260" y="1412" width="220" height="160" preserveAspectRatio="xMidYMid slice" clip-path="url(#clip25)"/>
<text x="268" y="1590" font-size="14" font-family="Menlo, Monaco, monospace" fill="#13212b">26. ZYMM9229-p.jpg</text>
<text x="268" y="1607" font-size="11" font-family="PingFang SC, Helvetica, Arial" fill="#607181">赛车 · 赛道 · 上海国际赛车场 · 速度 · 人群</text>
<clipPath id="clip26"><rect x="500" y="1412" rx="14" ry="14" width="220" height="160"/></clipPath>
<rect x="500" y="1412" rx="14" ry="14" width="220" height="160" fill="#dfe7eb" stroke="#d0d9de"/>
<image xlink:href="file:///Users/azhangyiming666/Downloads/Codex/assets/photos/ZYMM9249-p.jpg" href="file:///Users/azhangyiming666/Downloads/Codex/assets/photos/ZYMM9249-p.jpg" x="500" y="1412" width="220" height="160" preserveAspectRatio="xMidYMid slice" clip-path="url(#clip26)"/>
<text x="508" y="1590" font-size="14" font-family="Menlo, Monaco, monospace" fill="#13212b">27. ZYMM9249-p.jpg</text>
<text x="508" y="1607" font-size="11" font-family="PingFang SC, Helvetica, Arial" fill="#607181">赛车 · 赛道 · 上海国际赛车场 · 速度 · 人群</text>
<clipPath id="clip27"><rect x="740" y="1412" rx="14" ry="14" width="220" height="160"/></clipPath>
<rect x="740" y="1412" rx="14" ry="14" width="220" height="160" fill="#dfe7eb" stroke="#d0d9de"/>
<image xlink:href="file:///Users/azhangyiming666/Downloads/Codex/assets/photos/ZYMM9257-p.jpg" href="file:///Users/azhangyiming666/Downloads/Codex/assets/photos/ZYMM9257-p.jpg" x="740" y="1412" width="220" height="160" preserveAspectRatio="xMidYMid slice" clip-path="url(#clip27)"/>
<text x="748" y="1590" font-size="14" font-family="Menlo, Monaco, monospace" fill="#13212b">28. ZYMM9257-p.jpg</text>
<text x="748" y="1607" font-size="11" font-family="PingFang SC, Helvetica, Arial" fill="#607181">赛车 · 赛道 · 上海国际赛车场 · 速度 · 人群</text>
<clipPath id="clip28"><rect x="20" y="1634" rx="14" ry="14" width="220" height="160"/></clipPath>
<rect x="20" y="1634" rx="14" ry="14" width="220" height="160" fill="#dfe7eb" stroke="#d0d9de"/>
<image xlink:href="file:///Users/azhangyiming666/Downloads/Codex/assets/photos/ZYMM9261-p.jpg" href="file:///Users/azhangyiming666/Downloads/Codex/assets/photos/ZYMM9261-p.jpg" x="20" y="1634" width="220" height="160" preserveAspectRatio="xMidYMid slice" clip-path="url(#clip28)"/>
<text x="28" y="1812" font-size="14" font-family="Menlo, Monaco, monospace" fill="#13212b">29. ZYMM9261-p.jpg</text>
<text x="28" y="1829" font-size="11" font-family="PingFang SC, Helvetica, Arial" fill="#607181">赛车 · 赛道 · 上海国际赛车场 · 速度 · 人群</text>
<clipPath id="clip29"><rect x="260" y="1634" rx="14" ry="14" width="220" height="160"/></clipPath>
<rect x="260" y="1634" rx="14" ry="14" width="220" height="160" fill="#dfe7eb" stroke="#d0d9de"/>
<image xlink:href="file:///Users/azhangyiming666/Downloads/Codex/assets/photos/ZYMM9271-p.jpg" href="file:///Users/azhangyiming666/Downloads/Codex/assets/photos/ZYMM9271-p.jpg" x="260" y="1634" width="220" height="160" preserveAspectRatio="xMidYMid slice" clip-path="url(#clip29)"/>
<text x="268" y="1812" font-size="14" font-family="Menlo, Monaco, monospace" fill="#13212b">30. ZYMM9271-p.jpg</text>
<text x="268" y="1829" font-size="11" font-family="PingFang SC, Helvetica, Arial" fill="#607181">赛车 · 赛道 · 上海国际赛车场 · 速度 · 人群</text>
<clipPath id="clip30"><rect x="500" y="1634" rx="14" ry="14" width="220" height="160"/></clipPath>
<rect x="500" y="1634" rx="14" ry="14" width="220" height="160" fill="#dfe7eb" stroke="#d0d9de"/>
<image xlink:href="file:///Users/azhangyiming666/Downloads/Codex/assets/photos/ZYMM9298-p.jpg" href="file:///Users/azhangyiming666/Downloads/Codex/assets/photos/ZYMM9298-p.jpg" x="500" y="1634" width="220" height="160" preserveAspectRatio="xMidYMid slice" clip-path="url(#clip30)"/>
<text x="508" y="1812" font-size="14" font-family="Menlo, Monaco, monospace" fill="#13212b">31. ZYMM9298-p.jpg</text>
<text x="508" y="1829" font-size="11" font-family="PingFang SC, Helvetica, Arial" fill="#607181">赛车 · 赛道 · 上海国际赛车场 · 速度 · 人群</text>
<clipPath id="clip31"><rect x="740" y="1634" rx="14" ry="14" width="220" height="160"/></clipPath>
<rect x="740" y="1634" rx="14" ry="14" width="220" height="160" fill="#dfe7eb" stroke="#d0d9de"/>
<image xlink:href="file:///Users/azhangyiming666/Downloads/Codex/assets/photos/ZYMM9305-p.jpg" href="file:///Users/azhangyiming666/Downloads/Codex/assets/photos/ZYMM9305-p.jpg" x="740" y="1634" width="220" height="160" preserveAspectRatio="xMidYMid slice" clip-path="url(#clip31)"/>
<text x="748" y="1812" font-size="14" font-family="Menlo, Monaco, monospace" fill="#13212b">32. ZYMM9305-p.jpg</text>
<text x="748" y="1829" font-size="11" font-family="PingFang SC, Helvetica, Arial" fill="#607181">赛车 · 赛道 · 上海国际赛车场 · 速度 · 人群</text>
<clipPath id="clip32"><rect x="20" y="1856" rx="14" ry="14" width="220" height="160"/></clipPath>
<rect x="20" y="1856" rx="14" ry="14" width="220" height="160" fill="#dfe7eb" stroke="#d0d9de"/>
<image xlink:href="file:///Users/azhangyiming666/Downloads/Codex/assets/photos/ZYMM9310-p.jpg" href="file:///Users/azhangyiming666/Downloads/Codex/assets/photos/ZYMM9310-p.jpg" x="20" y="1856" width="220" height="160" preserveAspectRatio="xMidYMid slice" clip-path="url(#clip32)"/>
<text x="28" y="2034" font-size="14" font-family="Menlo, Monaco, monospace" fill="#13212b">33. ZYMM9310-p.jpg</text>
<text x="28" y="2051" font-size="11" font-family="PingFang SC, Helvetica, Arial" fill="#607181">赛车 · 赛道 · 上海国际赛车场 · 速度 · 人群</text>
<clipPath id="clip33"><rect x="260" y="1856" rx="14" ry="14" width="220" height="160"/></clipPath>
<rect x="260" y="1856" rx="14" ry="14" width="220" height="160" fill="#dfe7eb" stroke="#d0d9de"/>
<image xlink:href="file:///Users/azhangyiming666/Downloads/Codex/assets/photos/ZYMM9314-p.jpg" href="file:///Users/azhangyiming666/Downloads/Codex/assets/photos/ZYMM9314-p.jpg" x="260" y="1856" width="220" height="160" preserveAspectRatio="xMidYMid slice" clip-path="url(#clip33)"/>
<text x="268" y="2034" font-size="14" font-family="Menlo, Monaco, monospace" fill="#13212b">34. ZYMM9314-p.jpg</text>
<text x="268" y="2051" font-size="11" font-family="PingFang SC, Helvetica, Arial" fill="#607181">赛车 · 赛道 · 上海国际赛车场 · 速度 · 人群</text>
<clipPath id="clip34"><rect x="500" y="1856" rx="14" ry="14" width="220" height="160"/></clipPath>
<rect x="500" y="1856" rx="14" ry="14" width="220" height="160" fill="#dfe7eb" stroke="#d0d9de"/>
<image xlink:href="file:///Users/azhangyiming666/Downloads/Codex/assets/photos/ZYMM9333-p.jpg" href="file:///Users/azhangyiming666/Downloads/Codex/assets/photos/ZYMM9333-p.jpg" x="500" y="1856" width="220" height="160" preserveAspectRatio="xMidYMid slice" clip-path="url(#clip34)"/>
<text x="508" y="2034" font-size="14" font-family="Menlo, Monaco, monospace" fill="#13212b">35. ZYMM9333-p.jpg</text>
<text x="508" y="2051" font-size="11" font-family="PingFang SC, Helvetica, Arial" fill="#607181">赛车 · 赛道 · 上海国际赛车场 · 速度 · 人群</text>
<clipPath id="clip35"><rect x="740" y="1856" rx="14" ry="14" width="220" height="160"/></clipPath>
<rect x="740" y="1856" rx="14" ry="14" width="220" height="160" fill="#dfe7eb" stroke="#d0d9de"/>
<image xlink:href="file:///Users/azhangyiming666/Downloads/Codex/assets/photos/ZYMM9343-p.jpg" href="file:///Users/azhangyiming666/Downloads/Codex/assets/photos/ZYMM9343-p.jpg" x="740" y="1856" width="220" height="160" preserveAspectRatio="xMidYMid slice" clip-path="url(#clip35)"/>
<text x="748" y="2034" font-size="14" font-family="Menlo, Monaco, monospace" fill="#13212b">36. ZYMM9343-p.jpg</text>
<text x="748" y="2051" font-size="11" font-family="PingFang SC, Helvetica, Arial" fill="#607181">赛车 · 赛道 · 上海国际赛车场 · 速度 · 人群</text>
<clipPath id="clip36"><rect x="20" y="2078" rx="14" ry="14" width="220" height="160"/></clipPath>
<rect x="20" y="2078" rx="14" ry="14" width="220" height="160" fill="#dfe7eb" stroke="#d0d9de"/>
<image xlink:href="file:///Users/azhangyiming666/Downloads/Codex/assets/photos/ZYMM9367-p.jpg" href="file:///Users/azhangyiming666/Downloads/Codex/assets/photos/ZYMM9367-p.jpg" x="20" y="2078" width="220" height="160" preserveAspectRatio="xMidYMid slice" clip-path="url(#clip36)"/>
<text x="28" y="2256" font-size="14" font-family="Menlo, Monaco, monospace" fill="#13212b">37. ZYMM9367-p.jpg</text>
<text x="28" y="2273" font-size="11" font-family="PingFang SC, Helvetica, Arial" fill="#607181">赛车 · 赛道 · 上海国际赛车场 · 速度 · 人群</text>
<clipPath id="clip37"><rect x="260" y="2078" rx="14" ry="14" width="220" height="160"/></clipPath>
<rect x="260" y="2078" rx="14" ry="14" width="220" height="160" fill="#dfe7eb" stroke="#d0d9de"/>
<image xlink:href="file:///Users/azhangyiming666/Downloads/Codex/assets/photos/ZYMM9435-p.jpg" href="file:///Users/azhangyiming666/Downloads/Codex/assets/photos/ZYMM9435-p.jpg" x="260" y="2078" width="220" height="160" preserveAspectRatio="xMidYMid slice" clip-path="url(#clip37)"/>
<text x="268" y="2256" font-size="14" font-family="Menlo, Monaco, monospace" fill="#13212b">38. ZYMM9435-p.jpg</text>
<text x="268" y="2273" font-size="11" font-family="PingFang SC, Helvetica, Arial" fill="#607181">赛车 · 赛道 · 上海国际赛车场 · 速度 · 人群</text>
<clipPath id="clip38"><rect x="500" y="2078" rx="14" ry="14" width="220" height="160"/></clipPath>
<rect x="500" y="2078" rx="14" ry="14" width="220" height="160" fill="#dfe7eb" stroke="#d0d9de"/>
<image xlink:href="file:///Users/azhangyiming666/Downloads/Codex/assets/photos/ZYMM9443-p.jpg" href="file:///Users/azhangyiming666/Downloads/Codex/assets/photos/ZYMM9443-p.jpg" x="500" y="2078" width="220" height="160" preserveAspectRatio="xMidYMid slice" clip-path="url(#clip38)"/>
<text x="508" y="2256" font-size="14" font-family="Menlo, Monaco, monospace" fill="#13212b">39. ZYMM9443-p.jpg</text>
<text x="508" y="2273" font-size="11" font-family="PingFang SC, Helvetica, Arial" fill="#607181">赛车 · 赛道 · 上海国际赛车场 · 速度 · 人群</text>
<clipPath id="clip39"><rect x="740" y="2078" rx="14" ry="14" width="220" height="160"/></clipPath>
<rect x="740" y="2078" rx="14" ry="14" width="220" height="160" fill="#dfe7eb" stroke="#d0d9de"/>
<image xlink:href="file:///Users/azhangyiming666/Downloads/Codex/assets/photos/ZYMM9493-p.jpg" href="file:///Users/azhangyiming666/Downloads/Codex/assets/photos/ZYMM9493-p.jpg" x="740" y="2078" width="220" height="160" preserveAspectRatio="xMidYMid slice" clip-path="url(#clip39)"/>
<text x="748" y="2256" font-size="14" font-family="Menlo, Monaco, monospace" fill="#13212b">40. ZYMM9493-p.jpg</text>
<text x="748" y="2273" font-size="11" font-family="PingFang SC, Helvetica, Arial" fill="#607181">赛车 · 赛道 · 上海国际赛车场 · 速度 · 人群</text>
<clipPath id="clip40"><rect x="20" y="2300" rx="14" ry="14" width="220" height="160"/></clipPath>
<rect x="20" y="2300" rx="14" ry="14" width="220" height="160" fill="#dfe7eb" stroke="#d0d9de"/>
<image xlink:href="file:///Users/azhangyiming666/Downloads/Codex/assets/photos/ZYMM9495-p.jpg" href="file:///Users/azhangyiming666/Downloads/Codex/assets/photos/ZYMM9495-p.jpg" x="20" y="2300" width="220" height="160" preserveAspectRatio="xMidYMid slice" clip-path="url(#clip40)"/>
<text x="28" y="2478" font-size="14" font-family="Menlo, Monaco, monospace" fill="#13212b">41. ZYMM9495-p.jpg</text>
<text x="28" y="2495" font-size="11" font-family="PingFang SC, Helvetica, Arial" fill="#607181">赛车 · 赛道 · 上海国际赛车场 · 速度 · 人群</text>
<clipPath id="clip41"><rect x="260" y="2300" rx="14" ry="14" width="220" height="160"/></clipPath>
<rect x="260" y="2300" rx="14" ry="14" width="220" height="160" fill="#dfe7eb" stroke="#d0d9de"/>
<image xlink:href="file:///Users/azhangyiming666/Downloads/Codex/assets/photos/ZYMM9500-p.jpg" href="file:///Users/azhangyiming666/Downloads/Codex/assets/photos/ZYMM9500-p.jpg" x="260" y="2300" width="220" height="160" preserveAspectRatio="xMidYMid slice" clip-path="url(#clip41)"/>
<text x="268" y="2478" font-size="14" font-family="Menlo, Monaco, monospace" fill="#13212b">42. ZYMM9500-p.jpg</text>
<text x="268" y="2495" font-size="11" font-family="PingFang SC, Helvetica, Arial" fill="#607181">赛车 · 赛道 · 上海国际赛车场 · 速度 · 人群</text>
<clipPath id="clip42"><rect x="500" y="2300" rx="14" ry="14" width="220" height="160"/></clipPath>
<rect x="500" y="2300" rx="14" ry="14" width="220" height="160" fill="#dfe7eb" stroke="#d0d9de"/>
<image xlink:href="file:///Users/azhangyiming666/Downloads/Codex/assets/photos/ZYMM9502-p.jpg" href="file:///Users/azhangyiming666/Downloads/Codex/assets/photos/ZYMM9502-p.jpg" x="500" y="2300" width="220" height="160" preserveAspectRatio="xMidYMid slice" clip-path="url(#clip42)"/>
<text x="508" y="2478" font-size="14" font-family="Menlo, Monaco, monospace" fill="#13212b">43. ZYMM9502-p.jpg</text>
<text x="508" y="2495" font-size="11" font-family="PingFang SC, Helvetica, Arial" fill="#607181">赛车 · 赛道 · 上海国际赛车场 · 速度 · 人群</text>
<clipPath id="clip43"><rect x="740" y="2300" rx="14" ry="14" width="220" height="160"/></clipPath>
<rect x="740" y="2300" rx="14" ry="14" width="220" height="160" fill="#dfe7eb" stroke="#d0d9de"/>
<image xlink:href="file:///Users/azhangyiming666/Downloads/Codex/assets/photos/ZYMM9509-p.jpg" href="file:///Users/azhangyiming666/Downloads/Codex/assets/photos/ZYMM9509-p.jpg" x="740" y="2300" width="220" height="160" preserveAspectRatio="xMidYMid slice" clip-path="url(#clip43)"/>
<text x="748" y="2478" font-size="14" font-family="Menlo, Monaco, monospace" fill="#13212b">44. ZYMM9509-p.jpg</text>
<text x="748" y="2495" font-size="11" font-family="PingFang SC, Helvetica, Arial" fill="#607181">赛车 · 赛道 · 上海国际赛车场 · 速度 · 人群</text>
<clipPath id="clip44"><rect x="20" y="2522" rx="14" ry="14" width="220" height="160"/></clipPath>
<rect x="20" y="2522" rx="14" ry="14" width="220" height="160" fill="#dfe7eb" stroke="#d0d9de"/>
<image xlink:href="file:///Users/azhangyiming666/Downloads/Codex/assets/photos/ZYMM9522-p.jpg" href="file:///Users/azhangyiming666/Downloads/Codex/assets/photos/ZYMM9522-p.jpg" x="20" y="2522" width="220" height="160" preserveAspectRatio="xMidYMid slice" clip-path="url(#clip44)"/>
<text x="28" y="2700" font-size="14" font-family="Menlo, Monaco, monospace" fill="#13212b">45. ZYMM9522-p.jpg</text>
<text x="28" y="2717" font-size="11" font-family="PingFang SC, Helvetica, Arial" fill="#607181">赛车 · 赛道 · 上海国际赛车场 · 速度 · 人群</text>
<clipPath id="clip45"><rect x="260" y="2522" rx="14" ry="14" width="220" height="160"/></clipPath>
<rect x="260" y="2522" rx="14" ry="14" width="220" height="160" fill="#dfe7eb" stroke="#d0d9de"/>
<image xlink:href="file:///Users/azhangyiming666/Downloads/Codex/assets/photos/ZYMM9536-p.jpg" href="file:///Users/azhangyiming666/Downloads/Codex/assets/photos/ZYMM9536-p.jpg" x="260" y="2522" width="220" height="160" preserveAspectRatio="xMidYMid slice" clip-path="url(#clip45)"/>
<text x="268" y="2700" font-size="14" font-family="Menlo, Monaco, monospace" fill="#13212b">46. ZYMM9536-p.jpg</text>
<text x="268" y="2717" font-size="11" font-family="PingFang SC, Helvetica, Arial" fill="#607181">赛车 · 赛道 · 上海国际赛车场 · 速度 · 人群</text>
<clipPath id="clip46"><rect x="500" y="2522" rx="14" ry="14" width="220" height="160"/></clipPath>
<rect x="500" y="2522" rx="14" ry="14" width="220" height="160" fill="#dfe7eb" stroke="#d0d9de"/>
<image xlink:href="file:///Users/azhangyiming666/Downloads/Codex/assets/photos/ZYMM9543-p.jpg" href="file:///Users/azhangyiming666/Downloads/Codex/assets/photos/ZYMM9543-p.jpg" x="500" y="2522" width="220" height="160" preserveAspectRatio="xMidYMid slice" clip-path="url(#clip46)"/>
<text x="508" y="2700" font-size="14" font-family="Menlo, Monaco, monospace" fill="#13212b">47. ZYMM9543-p.jpg</text>
<text x="508" y="2717" font-size="11" font-family="PingFang SC, Helvetica, Arial" fill="#607181">赛车 · 赛道 · 上海国际赛车场 · 速度 · 人群</text>
<clipPath id="clip47"><rect x="740" y="2522" rx="14" ry="14" width="220" height="160"/></clipPath>
<rect x="740" y="2522" rx="14" ry="14" width="220" height="160" fill="#dfe7eb" stroke="#d0d9de"/>
<image xlink:href="file:///Users/azhangyiming666/Downloads/Codex/assets/photos/ZYMM9591-p.jpg" href="file:///Users/azhangyiming666/Downloads/Codex/assets/photos/ZYMM9591-p.jpg" x="740" y="2522" width="220" height="160" preserveAspectRatio="xMidYMid slice" clip-path="url(#clip47)"/>
<text x="748" y="2700" font-size="14" font-family="Menlo, Monaco, monospace" fill="#13212b">48. ZYMM9591-p.jpg</text>
<text x="748" y="2717" font-size="11" font-family="PingFang SC, Helvetica, Arial" fill="#607181">赛车 · 赛道 · 上海国际赛车场 · 速度 · 人群</text>
<clipPath id="clip48"><rect x="20" y="2744" rx="14" ry="14" width="220" height="160"/></clipPath>
<rect x="20" y="2744" rx="14" ry="14" width="220" height="160" fill="#dfe7eb" stroke="#d0d9de"/>
<image xlink:href="file:///Users/azhangyiming666/Downloads/Codex/assets/photos/ZYMM9592-p.jpg" href="file:///Users/azhangyiming666/Downloads/Codex/assets/photos/ZYMM9592-p.jpg" x="20" y="2744" width="220" height="160" preserveAspectRatio="xMidYMid slice" clip-path="url(#clip48)"/>
<text x="28" y="2922" font-size="14" font-family="Menlo, Monaco, monospace" fill="#13212b">49. ZYMM9592-p.jpg</text>
<text x="28" y="2939" font-size="11" font-family="PingFang SC, Helvetica, Arial" fill="#607181">赛车 · 赛道 · 上海国际赛车场 · 速度 · 人群</text>
<clipPath id="clip49"><rect x="260" y="2744" rx="14" ry="14" width="220" height="160"/></clipPath>
<rect x="260" y="2744" rx="14" ry="14" width="220" height="160" fill="#dfe7eb" stroke="#d0d9de"/>
<image xlink:href="file:///Users/azhangyiming666/Downloads/Codex/assets/photos/ZYMM9594-p.jpg" href="file:///Users/azhangyiming666/Downloads/Codex/assets/photos/ZYMM9594-p.jpg" x="260" y="2744" width="220" height="160" preserveAspectRatio="xMidYMid slice" clip-path="url(#clip49)"/>
<text x="268" y="2922" font-size="14" font-family="Menlo, Monaco, monospace" fill="#13212b">50. ZYMM9594-p.jpg</text>
<text x="268" y="2939" font-size="11" font-family="PingFang SC, Helvetica, Arial" fill="#607181">赛车 · 赛道 · 上海国际赛车场 · 速度 · 人群</text>
<clipPath id="clip50"><rect x="500" y="2744" rx="14" ry="14" width="220" height="160"/></clipPath>
<rect x="500" y="2744" rx="14" ry="14" width="220" height="160" fill="#dfe7eb" stroke="#d0d9de"/>
<image xlink:href="file:///Users/azhangyiming666/Downloads/Codex/assets/photos/ZYMM9897-p.jpg" href="file:///Users/azhangyiming666/Downloads/Codex/assets/photos/ZYMM9897-p.jpg" x="500" y="2744" width="220" height="160" preserveAspectRatio="xMidYMid slice" clip-path="url(#clip50)"/>
<text x="508" y="2922" font-size="14" font-family="Menlo, Monaco, monospace" fill="#13212b">51. ZYMM9897-p.jpg</text>
<text x="508" y="2939" font-size="11" font-family="PingFang SC, Helvetica, Arial" fill="#607181">赛车 · 赛道 · 上海国际赛车场 · 速度 · 人群</text>
<clipPath id="clip51"><rect x="740" y="2744" rx="14" ry="14" width="220" height="160"/></clipPath>
<rect x="740" y="2744" rx="14" ry="14" width="220" height="160" fill="#dfe7eb" stroke="#d0d9de"/>
<image xlink:href="file:///Users/azhangyiming666/Downloads/Codex/assets/photos/ZYMM9906-p.jpg" href="file:///Users/azhangyiming666/Downloads/Codex/assets/photos/ZYMM9906-p.jpg" x="740" y="2744" width="220" height="160" preserveAspectRatio="xMidYMid slice" clip-path="url(#clip51)"/>
<text x="748" y="2922" font-size="14" font-family="Menlo, Monaco, monospace" fill="#13212b">52. ZYMM9906-p.jpg</text>
<text x="748" y="2939" font-size="11" font-family="PingFang SC, Helvetica, Arial" fill="#607181">赛车 · 赛道 · 上海国际赛车场 · 速度 · 人群</text>
<clipPath id="clip52"><rect x="20" y="2966" rx="14" ry="14" width="220" height="160"/></clipPath>
<rect x="20" y="2966" rx="14" ry="14" width="220" height="160" fill="#dfe7eb" stroke="#d0d9de"/>
<image xlink:href="file:///Users/azhangyiming666/Downloads/Codex/assets/photos/ZYMM9932-p.jpg" href="file:///Users/azhangyiming666/Downloads/Codex/assets/photos/ZYMM9932-p.jpg" x="20" y="2966" width="220" height="160" preserveAspectRatio="xMidYMid slice" clip-path="url(#clip52)"/>
<text x="28" y="3144" font-size="14" font-family="Menlo, Monaco, monospace" fill="#13212b">53. ZYMM9932-p.jpg</text>
<text x="28" y="3161" font-size="11" font-family="PingFang SC, Helvetica, Arial" fill="#607181">赛车 · 赛道 · 上海国际赛车场 · 速度 · 人群</text>
<clipPath id="clip53"><rect x="260" y="2966" rx="14" ry="14" width="220" height="160"/></clipPath>
<rect x="260" y="2966" rx="14" ry="14" width="220" height="160" fill="#dfe7eb" stroke="#d0d9de"/>
<image xlink:href="file:///Users/azhangyiming666/Downloads/Codex/assets/photos/ZYMM9937-p.jpg" href="file:///Users/azhangyiming666/Downloads/Codex/assets/photos/ZYMM9937-p.jpg" x="260" y="2966" width="220" height="160" preserveAspectRatio="xMidYMid slice" clip-path="url(#clip53)"/>
<text x="268" y="3144" font-size="14" font-family="Menlo, Monaco, monospace" fill="#13212b">54. ZYMM9937-p.jpg</text>
<text x="268" y="3161" font-size="11" font-family="PingFang SC, Helvetica, Arial" fill="#607181">赛车 · 赛道 · 上海国际赛车场 · 速度 · 人群</text>
<clipPath id="clip54"><rect x="500" y="2966" rx="14" ry="14" width="220" height="160"/></clipPath>
<rect x="500" y="2966" rx="14" ry="14" width="220" height="160" fill="#dfe7eb" stroke="#d0d9de"/>
<image xlink:href="file:///Users/azhangyiming666/Downloads/Codex/assets/photos/ZYMM9955-p.jpg" href="file:///Users/azhangyiming666/Downloads/Codex/assets/photos/ZYMM9955-p.jpg" x="500" y="2966" width="220" height="160" preserveAspectRatio="xMidYMid slice" clip-path="url(#clip54)"/>
<text x="508" y="3144" font-size="14" font-family="Menlo, Monaco, monospace" fill="#13212b">55. ZYMM9955-p.jpg</text>
<text x="508" y="3161" font-size="11" font-family="PingFang SC, Helvetica, Arial" fill="#607181">赛车 · 赛道 · 上海国际赛车场 · 速度 · 人群</text>
<clipPath id="clip55"><rect x="740" y="2966" rx="14" ry="14" width="220" height="160"/></clipPath>
<rect x="740" y="2966" rx="14" ry="14" width="220" height="160" fill="#dfe7eb" stroke="#d0d9de"/>
<image xlink:href="file:///Users/azhangyiming666/Downloads/Codex/assets/photos/ZYMM9970-p.jpg" href="file:///Users/azhangyiming666/Downloads/Codex/assets/photos/ZYMM9970-p.jpg" x="740" y="2966" width="220" height="160" preserveAspectRatio="xMidYMid slice" clip-path="url(#clip55)"/>
<text x="748" y="3144" font-size="14" font-family="Menlo, Monaco, monospace" fill="#13212b">56. ZYMM9970-p.jpg</text>
<text x="748" y="3161" font-size="11" font-family="PingFang SC, Helvetica, Arial" fill="#607181">赛车 · 赛道 · 上海国际赛车场 · 速度 · 人群</text>
</svg>