<svg xmlns="http://www.w3.org/2000/svg" xmlns:xlink="http://www.w3.org/1999/xlink" width="980" height="988" viewBox="0 0 980 988">
<rect width="100%" height="100%" fill="#f4f7f8"/>
<text x="20" y="32" font-size="26" font-family="PingFang SC, Helvetica, Arial" fill="#13212b">西岸梦中心</text>
<text x="20" y="58" font-size="14" font-family="PingFang SC, Helvetica, Arial" fill="#607181">徐汇区 · 2026.03.08</text>
<clipPath id="clip0"><rect x="20" y="80" rx="14" ry="14" width="220" height="160"/></clipPath>
<rect x="20" y="80" rx="14" ry="14" width="220" height="160" fill="#dfe7eb" stroke="#d0d9de"/>
<image xlink:href="file:///Users/azhangyiming666/Downloads/Codex/assets/photos/ZYMM7994-p.jpg" href="file:///Users/azhangyiming666/Downloads/Codex/assets/photos/ZYMM7994-p.jpg" x="20" y="80" width="220" height="160" preserveAspectRatio="xMidYMid slice" clip-path="url(#clip0)"/>
<text x="28" y="258" font-size="14" font-family="Menlo, Monaco, monospace" fill="#13212b">1. ZYMM7994-p.jpg</text>
<text x="28" y="275" font-size="11" font-family="PingFang SC, Helvetica, Arial" fill="#607181">街区 · 建筑 · 商圈 · 城市 · 夜景</text>
<clipPath id="clip1"><rect x="260" y="80" rx="14" ry="14" width="220" height="160"/></clipPath>
<rect x="260" y="80" rx="14" ry="14" width="220" height="160" fill="#dfe7eb" stroke="#d0d9de"/>
<image xlink:href="file:///Users/azhangyiming666/Downloads/Codex/assets/photos/ZYMM8004-p.jpg" href="file:///Users/azhangyiming666/Downloads/Codex/assets/photos/ZYMM8004-p.jpg" x="260" y="80" width="220" height="160" preserveAspectRatio="xMidYMid slice" clip-path="url(#clip1)"/>
<text x="268" y="258" font-size="14" font-family="Menlo, Monaco, monospace" fill="#13212b">2. ZYMM8004-p.jpg</text>
<text x="268" y="275" font-size="11" font-family="PingFang SC, Helvetica, Arial" fill="#607181">街区 · 建筑 · 商圈 · 城市 · 夜景</text>
<clipPath id="clip2"><rect x="500" y="80" rx="14" ry="14" width="220" height="160"/></clipPath>
<rect x="500" y="80" rx="14" ry="14" width="220" height="160" fill="#dfe7eb" stroke="#d0d9de"/>
<image xlink:href="file:///Users/azhangyiming666/Downloads/Codex/assets/photos/ZYMM8014-p.jpg" href="file:///Users/azhangyiming666/Downloads/Codex/assets/photos/ZYMM8014-p.jpg" x="500" y="80" width="220" height="160" preserveAspectRatio="xMidYMid slice" clip-path="url(#clip2)"/>
<text x="508" y="258" font-size="14" font-family="Menlo, Monaco, monospace" fill="#13212b">3. ZYMM8014-p.jpg</text>
<text x="508" y="275" font-size="11" font-family="PingFang SC, Helvetica, Arial" fill="#607181">街区 · 建筑 · 商圈 · 城市 · 夜景</text>
<clipPath id="clip3"><rect x="740" y="80" rx="14" ry="14" width="220" height="160"/></clipPath>
<rect x="740" y="80" rx="14" ry="14" width="220" height="160" fill="#dfe7eb" stroke="#d0d9de"/>
<image xlink:href="file:///Users/azhangyiming666/Downloads/Codex/assets/photos/ZYMM8016-p.jpg" href="file:///Users/azhangyiming666/Downloads/Codex/assets/photos/ZYMM8016-p.jpg" x="740" y="80" width="220" height="160" preserveAspectRatio="xMidYMid slice" clip-path="url(#clip3)"/>
<text x="748" y="258" font-size="14" font-family="Menlo, Monaco, monospace" fill="#13212b">4. ZYMM8016-p.jpg</text>
<text x="748" y="275" font-size="11" font-family="PingFang SC, Helvetica, Arial" fill="#607181">街区 · 建筑 · 商圈 · 城市 · 夜景</text>
<clipPath id="clip4"><rect x="20" y="302" rx="14" ry="14" width="220" height="160"/></clipPath>
<rect x="20" y="302" rx="14" ry="14" width="220" height="160" fill="#dfe7eb" stroke="#d0d9de"/>
<image xlink:href="file:///Users/azhangyiming666/Downloads/Codex/assets/photos/ZYMM8029-p.jpg" href="file:///Users/azhangyiming666/Downloads/Codex/assets/photos/ZYMM8029-p.jpg" x="20" y="302" width="220" height="160" preserveAspectRatio="xMidYMid slice" clip-path="url(#clip4)"/>
<text x="28" y="480" font-size="14" font-family="Menlo, Monaco, monospace" fill="#13212b">5. ZYMM8029-p.jpg</text>
<text x="28" y="497" font-size="11" font-family="PingFang SC, Helvetica, Arial" fill="#607181">街区 · 建筑 · 商圈 · 城市 · 夜景</text>
<clipPath id="clip5"><rect x="260" y="302" rx="14" ry="14" width="220" height="160"/></clipPath>
<rect x="260" y="302" rx="14" ry="14" width="220" height="160" fill="#dfe7eb" stroke="#d0d9de"/>
<image xlink:href="file:///Users/azhangyiming666/Downloads/Codex/assets/photos/ZYMM8041-p.jpg" href="file:///Users/azhangyiming666/Downloads/Codex/assets/photos/ZYMM8041-p.jpg" x="260" y="302" width="220" height="160" preserveAspectRatio="xMidYMid slice" clip-path="url(#clip5)"/>
<text x="268" y="480" font-size="14" font-family="Menlo, Monaco, monospace" fill="#13212b">6. ZYMM8041-p.jpg</text>
<text x="268" y="497" font-size="11" font-family="PingFang SC, Helvetica, Arial" fill="#607181">街区 · 建筑 · 商圈 · 城市 · 夜景</text>
<clipPath id="clip6"><rect x="500" y="302" rx="14" ry="14" width="220" height="160"/></clipPath>
<rect x="500" y="302" rx="14" ry="14" width="220" height="160" fill="#dfe7eb" stroke="#d0d9de"/>
<image xlink:href="file:///Users/azhangyiming666/Downloads/Codex/assets/photos/ZYMM8046-p.jpg" href="file:///Users/azhangyiming666/Downloads/Codex/assets/photos/ZYMM8046-p.jpg" x="500" y="302" width="220" height="160" preserveAspectRatio="xMidYMid slice" clip-path="url(#clip6)"/>
<text x="508" y="480" font-size="14" font-family="Menlo, Monaco, monospace" fill="#13212b">7. ZYMM8046-p.jpg</text>
<text x="508" y="497" font-size="11" font-family="PingFang SC, Helvetica, Arial" fill="#607181">街区 · 建筑 · 商圈 · 城市 · 夜景</text>
<clipPath id="clip7"><rect x="740" y="302" rx="14" ry="14" width="220" height="160"/></clipPath>
<rect x="740" y="302" rx="14" ry="14" width="220" height="160" fill="#dfe7eb" stroke="#d0d9de"/>
<image xlink:href="file:///Users/azhangyiming666/Downloads/Codex/assets/photos/ZYMM8054-p.jpg" href="file:///Users/azhangyiming666/Downloads/Codex/assets/photos/ZYMM8054-p.jpg" x="740" y="302" width="220" height="160" preserveAspectRatio="xMidYMid slice" clip-path="url(#clip7)"/>
<text x="748" y="480" font-size="14" font-family="Menlo, Monaco, monospace" fill="#13212b">8. ZYMM8054-p.jpg</text>
<text x="748" y="497" font-size="11" font-family="PingFang SC, Helvetica, Arial" fill="#607181">街区 · 建筑 · 商圈 · 城市 · 夜景</text>
<clipPath id="clip8"><rect x="20" y="524" rx="14" ry="14" width="220" height="160"/></clipPath>
<rect x="20" y="524" rx="14" ry="14" width="220" height="160" fill="#dfe7eb" stroke="#d0d9de"/>
<image xlink:href="file:///Users/azhangyiming666/Downloads/Codex/assets/photos/ZYMM8063-p.jpg" href="file:///Users/azhangyiming666/Downloads/Codex/assets/photos/ZYMM8063-p.jpg" x="20" y="524" width="220" height="160" preserveAspectRatio="xMidYMid slice" clip-path="url(#clip8)"/>
<text x="28" y="702" font-size="14" font-family="Menlo, Monaco, monospace" fill="#13212b">9. ZYMM8063-p.jpg</text>
<text x="28" y="719" font-size="11" font-family="PingFang SC, Helvetica, Arial" fill="#607181">街区 · 建筑 · 商圈 · 城市 · 夜景</text>
<clipPath id="clip9"><rect x="260" y="524" rx="14" ry="14" width="220" height="160"/></clipPath>
<rect x="260" y="524" rx="14" ry="14" width="220" height="160" fill="#dfe7eb" stroke="#d0d9de"/>
<image xlink:href="file:///Users/azhangyiming666/Downloads/Codex/assets/photos/ZYMM8072-p.jpg" href="file:///Users/azhangyiming666/Downloads/Codex/assets/photos/ZYMM8072-p.jpg" x="260" y="524" width="220" height="160" preserveAspectRatio="xMidYMid slice" clip-path="url(#clip9)"/>
<text x="268" y="702" font-size="14" font-family="Menlo, Monaco, monospace" fill="#13212b">10. ZYMM8072-p.jpg</text>
<text x="268" y="719" font-size="11" font-family="PingFang SC, Helvetica, Arial" fill="#607181">街区 · 建筑 · 商圈 · 城市 · 夜景</text>
<clipPath id="clip10"><rect x="500" y="524" rx="14" ry="14" width="220" height="160"/></clipPath>
<rect x="500" y="524" rx="14" ry="14" width="220" height="160" fill="#dfe7eb" stroke="#d0d9de"/>
<image xlink:href="file:///Users/azhangyiming666/Downloads/Codex/assets/photos/ZYMM8102-p.jpg" href="file:///Users/azhangyiming666/Downloads/Codex/assets/photos/ZYMM8102-p.jpg" x="500" y="524" width="220" height="160" preserveAspectRatio="xMidYMid slice" clip-path="url(#clip10)"/>
<text x="508" y="702" font-size="14" font-family="Menlo, Monaco, monospace" fill="#13212b">11. ZYMM8102-p.jpg</text>
<text x="508" y="719" font-size="11" font-family="PingFang SC, Helvetica, Arial" fill="#607181">街区 · 建筑 · 商圈 · 城市 · 夜景</text>
<clipPath id="clip11"><rect x="740" y="524" rx="14" ry="14" width="220" height="160"/></clipPath>
<rect x="740" y="524" rx="14" ry="14" width="220" height="160" fill="#dfe7eb" stroke="#d0d9de"/>
<image xlink:href="file:///Users/azhangyiming666/Downloads/Codex/assets/photos/ZYMM8153-p.jpg" href="file:///Users/azhangyiming666/Downloads/Codex/assets/photos/ZYMM8153-p.jpg" x="740" y="524" width="220" height="160" preserveAspectRatio="xMidYMid slice" clip-path="url(#clip11)"/>
<text x="748" y="702" font-size="14" font-family="Menlo, Monaco, monospace" fill="#13212b">12. ZYMM8153-p.jpg</text>
<text x="748" y="719" font-size="11" font-family="PingFang SC, Helvetica, Arial" fill="#607181">街区 · 建筑 · 商圈 · 城市 · 夜景</text>
<clipPath id="clip12"><rect x="20" y="746" rx="14" ry="14" width="220" height="160"/></clipPath>
<rect x="20" y="746" rx="14" ry="14" width="220" height="160" fill="#dfe7eb" stroke="#d0d9de"/>
<image xlink:href="file:///Users/azhangyiming666/Downloads/Codex/assets/photos/ZYMM8157-p.jpg" href="file:///Users/azhangyiming666/Downloads/Codex/assets/photos/ZYMM8157-p.jpg" x="20" y="746" width="220" height="160" preserveAspectRatio="xMidYMid slice" clip-path="url(#clip12)"/>
<text x="28" y="924" font-size="14" font-family="Menlo, Monaco, monospace" fill="#13212b">13. ZYMM8157-p.jpg</text>
<text x="28" y="941" font-size="11" font-family="PingFang SC, Helvetica, Arial" fill="#607181">街区 · 建筑 · 商圈 · 城市 · 夜景</text>
</svg>