<svg xmlns="http://www.w3.org/2000/svg" xmlns:xlink="http://www.w3.org/1999/xlink" width="980" height="544" viewBox="0 0 980 544">
<rect width="100%" height="100%" fill="#f4f7f8"/>
<text x="20" y="32" font-size="26" font-family="PingFang SC, Helvetica, Arial" fill="#13212b">澄湖</text>
<text x="20" y="58" font-size="14" font-family="PingFang SC, Helvetica, Arial" fill="#607181">江苏 · 苏州 · 2026.03.21</text>
<clipPath id="clip0"><rect x="20" y="80" rx="14" ry="14" width="220" height="160"/></clipPath>
<rect x="20" y="80" rx="14" ry="14" width="220" height="160" fill="#dfe7eb" stroke="#d0d9de"/>
<image xlink:href="file:///Users/azhangyiming666/Downloads/Codex/assets/photos/ZYMM0521-p.jpg" href="file:///Users/azhangyiming666/Downloads/Codex/assets/photos/ZYMM0521-p.jpg" x="20" y="80" width="220" height="160" preserveAspectRatio="xMidYMid slice" clip-path="url(#clip0)"/>
<text x="28" y="258" font-size="14" font-family="Menlo, Monaco, monospace" fill="#13212b">1. ZYMM0521-p.jpg</text>
<text x="28" y="275" font-size="11" font-family="PingFang SC, Helvetica, Arial" fill="#607181">湖景 · 倒影 · 树木 · 步道</text>
<clipPath id="clip1"><rect x="260" y="80" rx="14" ry="14" width="220" height="160"/></clipPath>
<rect x="260" y="80" rx="14" ry="14" width="220" height="160" fill="#dfe7eb" stroke="#d0d9de"/>
<image xlink:href="file:///Users/azhangyiming666/Downloads/Codex/assets/photos/ZYMM0522-p.jpg" href="file:///Users/azhangyiming666/Downloads/Codex/assets/photos/ZYMM0522-p.jpg" x="260" y="80" width="220" height="160" preserveAspectRatio="xMidYMid slice" clip-path="url(#clip1)"/>
<text x="268" y="258" font-size="14" font-family="Menlo, Monaco, monospace" fill="#13212b">2. ZYMM0522-p.jpg</text>
<text x="268" y="275" font-size="11" font-family="PingFang SC, Helvetica, Arial" fill="#607181">湖景 · 倒影 · 树木 · 步道</text>
<clipPath id="clip2"><rect x="500" y="80" rx="14" ry="14" width="220" height="160"/></clipPath>
<rect x="500" y="80" rx="14" ry="14" width="220" height="160" fill="#dfe7eb" stroke="#d0d9de"/>
<image xlink:href="file:///Users/azhangyiming666/Downloads/Codex/assets/photos/ZYMM0544-p.jpg" href="file:///Users/azhangyiming666/Downloads/Codex/assets/photos/ZYMM0544-p.jpg" x="500" y="80" width="220" height="160" preserveAspectRatio="xMidYMid slice" clip-path="url(#clip2)"/>
<text x="508" y="258" font-size="14" font-family="Menlo, Monaco, monospace" fill="#13212b">3. ZYMM0544-p.jpg</text>
<text x="508" y="275" font-size="11" font-family="PingFang SC, Helvetica, Arial" fill="#607181">湖景 · 倒影 · 树木 · 步道</text>
<clipPath id="clip3"><rect x="740" y="80" rx="14" ry="14" width="220" height="160"/></clipPath>
<rect x="740" y="80" rx="14" ry="14" width="220" height="160" fill="#dfe7eb" stroke="#d0d9de"/>
<image xlink:href="file:///Users/azhangyiming666/Downloads/Codex/assets/photos/ZYMM0553-p.jpg" href="file:///Users/azhangyiming666/Downloads/Codex/assets/photos/ZYMM0553-p.jpg" x="740" y="80" width="220" height="160" preserveAspectRatio="xMidYMid slice" clip-path="url(#clip3)"/>
<text x="748" y="258" font-size="14" font-family="Menlo, Monaco, monospace" fill="#13212b">4. ZYMM0553-p.jpg</text>
<text x="748" y="275" font-size="11" font-family="PingFang SC, Helvetica, Arial" fill="#607181">湖景 · 倒影 · 树木 · 步道</text>
<clipPath id="clip4"><rect x="20" y="302" rx="14" ry="14" width="220" height="160"/></clipPath>
<rect x="20" y="302" rx="14" ry="14" width="220" height="160" fill="#dfe7eb" stroke="#d0d9de"/>
<image xlink:href="file:///Users/azhangyiming666/Downloads/Codex/assets/photos/ZYMM0558-p.jpg" href="file:///Users/azhangyiming666/Downloads/Codex/assets/photos/ZYMM0558-p.jpg" x="20" y="302" width="220" height="160" preserveAspectRatio="xMidYMid slice" clip-path="url(#clip4)"/>
<text x="28" y="480" font-size="14" font-family="Menlo, Monaco, monospace" fill="#13212b">5. ZYMM0558-p.jpg</text>
<text x="28" y="497" font-size="11" font-family="PingFang SC, Helvetica, Arial" fill="#607181">湖景 · 倒影 · 树木 · 步道</text>
<clipPath id="clip5"><rect x="260" y="302" rx="14" ry="14" width="220" height="160"/></clipPath>
<rect x="260" y="302" rx="14" ry="14" width="220" height="160" fill="#dfe7eb" stroke="#d0d9de"/>
<image xlink:href="file:///Users/azhangyiming666/Downloads/Codex/assets/photos/ZYMM0560-p.jpg" href="file:///Users/azhangyiming666/Downloads/Codex/assets/photos/ZYMM0560-p.jpg" x="260" y="302" width="220" height="160" preserveAspectRatio="xMidYMid slice" clip-path="url(#clip5)"/>
<text x="268" y="480" font-size="14" font-family="Menlo, Monaco, monospace" fill="#13212b">6. ZYMM0560-p.jpg</text>
<text x="268" y="497" font-size="11" font-family="PingFang SC, Helvetica, Arial" fill="#607181">湖景 · 倒影 · 树木 · 步道</text>
</svg>