<svg xmlns="http://www.w3.org/2000/svg" xmlns:xlink="http://www.w3.org/1999/xlink" width="980" height="544" viewBox="0 0 980 544">
<rect width="100%" height="100%" fill="#f4f7f8"/>
<text x="20" y="32" font-size="26" font-family="PingFang SC, Helvetica, Arial" fill="#13212b">七十二家理想村</text>
<text x="20" y="58" font-size="14" font-family="PingFang SC, Helvetica, Arial" fill="#607181">江苏 · 苏州 · 2026.03.21</text>
<clipPath id="clip0"><rect x="20" y="80" rx="14" ry="14" width="220" height="160"/></clipPath>
<rect x="20" y="80" rx="14" ry="14" width="220" height="160" fill="#dfe7eb" stroke="#d0d9de"/>
<image xlink:href="file:///Users/azhangyiming666/Downloads/Codex/assets/photos/ZYMM0562-p.jpg" href="file:///Users/azhangyiming666/Downloads/Codex/assets/photos/ZYMM0562-p.jpg" x="20" y="80" width="220" height="160" preserveAspectRatio="xMidYMid slice" clip-path="url(#clip0)"/>
<text x="28" y="258" font-size="14" font-family="Menlo, Monaco, monospace" fill="#13212b">1. ZYMM0562-p.jpg</text>
<text x="28" y="275" font-size="11" font-family="PingFang SC, Helvetica, Arial" fill="#607181">芦苇 · 堤岸 · 水岸 · 村落</text>
<clipPath id="clip1"><rect x="260" y="80" rx="14" ry="14" width="220" height="160"/></clipPath>
<rect x="260" y="80" rx="14" ry="14" width="220" height="160" fill="#dfe7eb" stroke="#d0d9de"/>
<image xlink:href="file:///Users/azhangyiming666/Downloads/Codex/assets/photos/ZYMM0585-p.jpg" href="file:///Users/azhangyiming666/Downloads/Codex/assets/photos/ZYMM0585-p.jpg" x="260" y="80" width="220" height="160" preserveAspectRatio="xMidYMid slice" clip-path="url(#clip1)"/>
<text x="268" y="258" font-size="14" font-family="Menlo, Monaco, monospace" fill="#13212b">2. ZYMM0585-p.jpg</text>
<text x="268" y="275" font-size="11" font-family="PingFang SC, Helvetica, Arial" fill="#607181">水景 · 天际线 · 堤岸 · 城市</text>
<clipPath id="clip2"><rect x="500" y="80" rx="14" ry="14" width="220" height="160"/></clipPath>
<rect x="500" y="80" rx="14" ry="14" width="220" height="160" fill="#dfe7eb" stroke="#d0d9de"/>
<image xlink:href="file:///Users/azhangyiming666/Downloads/Codex/assets/photos/ZYMM0606-p.jpg" href="file:///Users/azhangyiming666/Downloads/Codex/assets/photos/ZYMM0606-p.jpg" x="500" y="80" width="220" height="160" preserveAspectRatio="xMidYMid slice" clip-path="url(#clip2)"/>
<text x="508" y="258" font-size="14" font-family="Menlo, Monaco, monospace" fill="#13212b">3. ZYMM0606-p.jpg</text>
<text x="508" y="275" font-size="11" font-family="PingFang SC, Helvetica, Arial" fill="#607181">村落 · 水乡 · 建筑 · 田园 · 树木</text>
<clipPath id="clip3"><rect x="740" y="80" rx="14" ry="14" width="220" height="160"/></clipPath>
<rect x="740" y="80" rx="14" ry="14" width="220" height="160" fill="#dfe7eb" stroke="#d0d9de"/>
<image xlink:href="file:///Users/azhangyiming666/Downloads/Codex/assets/photos/ZYMM0609_HDR-p.jpg" href="file:///Users/azhangyiming666/Downloads/Codex/assets/photos/ZYMM0609_HDR-p.jpg" x="740" y="80" width="220" height="160" preserveAspectRatio="xMidYMid slice" clip-path="url(#clip3)"/>
<text x="748" y="258" font-size="14" font-family="Menlo, Monaco, monospace" fill="#13212b">4. ZYMM0609_HDR-p.jpg</text>
<text x="748" y="275" font-size="11" font-family="PingFang SC, Helvetica, Arial" fill="#607181">村落 · 水乡 · 建筑 · 田园 · 树木</text>
<clipPath id="clip4"><rect x="20" y="302" rx="14" ry="14" width="220" height="160"/></clipPath>
<rect x="20" y="302" rx="14" ry="14" width="220" height="160" fill="#dfe7eb" stroke="#d0d9de"/>
<image xlink:href="file:///Users/azhangyiming666/Downloads/Codex/assets/photos/ZYMM0624-p.jpg" href="file:///Users/azhangyiming666/Downloads/Codex/assets/photos/ZYMM0624-p.jpg" x="20" y="302" width="220" height="160" preserveAspectRatio="xMidYMid slice" clip-path="url(#clip4)"/>
<text x="28" y="480" font-size="14" font-family="Menlo, Monaco, monospace" fill="#13212b">5. ZYMM0624-p.jpg</text>
<text x="28" y="497" font-size="11" font-family="PingFang SC, Helvetica, Arial" fill="#607181">村落 · 水乡 · 建筑 · 田园 · 树木</text>
<clipPath id="clip5"><rect x="260" y="302" rx="14" ry="14" width="220" height="160"/></clipPath>
<rect x="260" y="302" rx="14" ry="14" width="220" height="160" fill="#dfe7eb" stroke="#d0d9de"/>
<image xlink:href="file:///Users/azhangyiming666/Downloads/Codex/assets/photos/ZYMM0628-p.jpg" href="file:///Users/azhangyiming666/Downloads/Codex/assets/photos/ZYMM0628-p.jpg" x="260" y="302" width="220" height="160" preserveAspectRatio="xMidYMid slice" clip-path="url(#clip5)"/>
<text x="268" y="480" font-size="14" font-family="Menlo, Monaco, monospace" fill="#13212b">6. ZYMM0628-p.jpg</text>
<text x="268" y="497" font-size="11" font-family="PingFang SC, Helvetica, Arial" fill="#607181">村落 · 水乡 · 建筑 · 田园 · 树木</text>
<clipPath id="clip6"><rect x="500" y="302" rx="14" ry="14" width="220" height="160"/></clipPath>
<rect x="500" y="302" rx="14" ry="14" width="220" height="160" fill="#dfe7eb" stroke="#d0d9de"/>
<image xlink:href="file:///Users/azhangyiming666/Downloads/Codex/assets/photos/ZYMM0639_HDR-p.jpg" href="file:///Users/azhangyiming666/Downloads/Codex/assets/photos/ZYMM0639_HDR-p.jpg" x="500" y="302" width="220" height="160" preserveAspectRatio="xMidYMid slice" clip-path="url(#clip6)"/>
<text x="508" y="480" font-size="14" font-family="Menlo, Monaco, monospace" fill="#13212b">7. ZYMM0639_HDR-p.jpg</text>
<text x="508" y="497" font-size="11" font-family="PingFang SC, Helvetica, Arial" fill="#607181">村落 · 水乡 · 建筑 · 田园 · 树木</text>
</svg>