<svg xmlns="http://www.w3.org/2000/svg" xmlns:xlink="http://www.w3.org/1999/xlink" width="980" height="544" viewBox="0 0 980 544">
<rect width="100%" height="100%" fill="#f4f7f8"/>
<text x="20" y="32" font-size="26" font-family="PingFang SC, Helvetica, Arial" fill="#13212b">沈家门码头</text>
<text x="20" y="58" font-size="14" font-family="PingFang SC, Helvetica, Arial" fill="#607181">浙江 · 舟山 · 2026.02.03</text>
<clipPath id="clip0"><rect x="20" y="80" rx="14" ry="14" width="220" height="160"/></clipPath>
<rect x="20" y="80" rx="14" ry="14" width="220" height="160" fill="#dfe7eb" stroke="#d0d9de"/>
<image xlink:href="file:///Users/azhangyiming666/Downloads/Codex/assets/photos/ZYMM6459.jpg" href="file:///Users/azhangyiming666/Downloads/Codex/assets/photos/ZYMM6459.jpg" x="20" y="80" width="220" height="160" preserveAspectRatio="xMidYMid slice" clip-path="url(#clip0)"/>
<text x="28" y="258" font-size="14" font-family="Menlo, Monaco, monospace" fill="#13212b">1. ZYMM6459.jpg</text>
<text x="28" y="275" font-size="11" font-family="PingFang SC, Helvetica, Arial" fill="#607181">码头 · 渔港 · 船只 · 海边</text>
<clipPath id="clip1"><rect x="260" y="80" rx="14" ry="14" width="220" height="160"/></clipPath>
<rect x="260" y="80" rx="14" ry="14" width="220" height="160" fill="#dfe7eb" stroke="#d0d9de"/>
<image xlink:href="file:///Users/azhangyiming666/Downloads/Codex/assets/photos/ZYMM6466.jpg" href="file:///Users/azhangyiming666/Downloads/Codex/assets/photos/ZYMM6466.jpg" x="260" y="80" width="220" height="160" preserveAspectRatio="xMidYMid slice" clip-path="url(#clip1)"/>
<text x="268" y="258" font-size="14" font-family="Menlo, Monaco, monospace" fill="#13212b">2. ZYMM6466.jpg</text>
<text x="268" y="275" font-size="11" font-family="PingFang SC, Helvetica, Arial" fill="#607181">码头 · 渔港 · 船只 · 海边</text>
<clipPath id="clip2"><rect x="500" y="80" rx="14" ry="14" width="220" height="160"/></clipPath>
<rect x="500" y="80" rx="14" ry="14" width="220" height="160" fill="#dfe7eb" stroke="#d0d9de"/>
<image xlink:href="file:///Users/azhangyiming666/Downloads/Codex/assets/photos/ZYMM6491.jpg" href="file:///Users/azhangyiming666/Downloads/Codex/assets/photos/ZYMM6491.jpg" x="500" y="80" width="220" height="160" preserveAspectRatio="xMidYMid slice" clip-path="url(#clip2)"/>
<text x="508" y="258" font-size="14" font-family="Menlo, Monaco, monospace" fill="#13212b">3. ZYMM6491.jpg</text>
<text x="508" y="275" font-size="11" font-family="PingFang SC, Helvetica, Arial" fill="#607181">码头 · 渔港 · 船只 · 海边</text>
<clipPath id="clip3"><rect x="740" y="80" rx="14" ry="14" width="220" height="160"/></clipPath>
<rect x="740" y="80" rx="14" ry="14" width="220" height="160" fill="#dfe7eb" stroke="#d0d9de"/>
<image xlink:href="file:///Users/azhangyiming666/Downloads/Codex/assets/photos/ZYMM6495.jpg" href="file:///Users/azhangyiming666/Downloads/Codex/assets/photos/ZYMM6495.jpg" x="740" y="80" width="220" height="160" preserveAspectRatio="xMidYMid slice" clip-path="url(#clip3)"/>
<text x="748" y="258" font-size="14" font-family="Menlo, Monaco, monospace" fill="#13212b">4. ZYMM6495.jpg</text>
<text x="748" y="275" font-size="11" font-family="PingFang SC, Helvetica, Arial" fill="#607181">码头 · 渔港 · 船只 · 海边</text>
<clipPath id="clip4"><rect x="20" y="302" rx="14" ry="14" width="220" height="160"/></clipPath>
<rect x="20" y="302" rx="14" ry="14" width="220" height="160" fill="#dfe7eb" stroke="#d0d9de"/>
<image xlink:href="file:///Users/azhangyiming666/Downloads/Codex/assets/photos/ZYMM6497.jpg" href="file:///Users/azhangyiming666/Downloads/Codex/assets/photos/ZYMM6497.jpg" x="20" y="302" width="220" height="160" preserveAspectRatio="xMidYMid slice" clip-path="url(#clip4)"/>
<text x="28" y="480" font-size="14" font-family="Menlo, Monaco, monospace" fill="#13212b">5. ZYMM6497.jpg</text>
<text x="28" y="497" font-size="11" font-family="PingFang SC, Helvetica, Arial" fill="#607181">码头 · 渔港 · 船只 · 海边</text>
<clipPath id="clip5"><rect x="260" y="302" rx="14" ry="14" width="220" height="160"/></clipPath>
<rect x="260" y="302" rx="14" ry="14" width="220" height="160" fill="#dfe7eb" stroke="#d0d9de"/>
<image xlink:href="file:///Users/azhangyiming666/Downloads/Codex/assets/photos/ZYMM6503.jpg" href="file:///Users/azhangyiming666/Downloads/Codex/assets/photos/ZYMM6503.jpg" x="260" y="302" width="220" height="160" preserveAspectRatio="xMidYMid slice" clip-path="url(#clip5)"/>
<text x="268" y="480" font-size="14" font-family="Menlo, Monaco, monospace" fill="#13212b">6. ZYMM6503.jpg</text>
<text x="268" y="497" font-size="11" font-family="PingFang SC, Helvetica, Arial" fill="#607181">码头 · 渔港 · 船只 · 海边</text>
<clipPath id="clip6"><rect x="500" y="302" rx="14" ry="14" width="220" height="160"/></clipPath>
<rect x="500" y="302" rx="14" ry="14" width="220" height="160" fill="#dfe7eb" stroke="#d0d9de"/>
<image xlink:href="file:///Users/azhangyiming666/Downloads/Codex/assets/photos/ZYMM6506.jpg" href="file:///Users/azhangyiming666/Downloads/Codex/assets/photos/ZYMM6506.jpg" x="500" y="302" width="220" height="160" preserveAspectRatio="xMidYMid slice" clip-path="url(#clip6)"/>
<text x="508" y="480" font-size="14" font-family="Menlo, Monaco, monospace" fill="#13212b">7. ZYMM6506.jpg</text>
<text x="508" y="497" font-size="11" font-family="PingFang SC, Helvetica, Arial" fill="#607181">码头 · 渔港 · 船只 · 海边</text>
<clipPath id="clip7"><rect x="740" y="302" rx="14" ry="14" width="220" height="160"/></clipPath>
<rect x="740" y="302" rx="14" ry="14" width="220" height="160" fill="#dfe7eb" stroke="#d0d9de"/>
<image xlink:href="file:///Users/azhangyiming666/Downloads/Codex/assets/photos/ZYMM6514.jpg" href="file:///Users/azhangyiming666/Downloads/Codex/assets/photos/ZYMM6514.jpg" x="740" y="302" width="220" height="160" preserveAspectRatio="xMidYMid slice" clip-path="url(#clip7)"/>
<text x="748" y="480" font-size="14" font-family="Menlo, Monaco, monospace" fill="#13212b">8. ZYMM6514.jpg</text>
<text x="748" y="497" font-size="11" font-family="PingFang SC, Helvetica, Arial" fill="#607181">码头 · 渔港 · 船只 · 海边</text>
</svg>