<svg xmlns="http://www.w3.org/2000/svg" xmlns:xlink="http://www.w3.org/1999/xlink" width="534" height="560" viewBox="0 0 534 560">
<rect width="100%" height="100%" fill="#f4f7f8"/>
<text x="18" y="32" font-size="24" font-family="PingFang SC, Helvetica, Arial" fill="#13212b">上海站 · 1/1</text>
<text x="18" y="58" font-size="14" font-family="PingFang SC, Helvetica, Arial" fill="#607181">静安区 · 2026.03.07</text>
<clipPath id="clip0_0"><rect x="18" y="86" rx="12" ry="12" width="240" height="170"/></clipPath>
<rect x="18" y="86" rx="12" ry="12" width="240" height="170" fill="#dfe7eb" stroke="#d0d9de"/>
<image xlink:href="file:///Users/azhangyiming666/Downloads/Codex/assets/photos/ZYMM7944-p.jpg" href="file:///Users/azhangyiming666/Downloads/Codex/assets/photos/ZYMM7944-p.jpg" x="18" y="86" width="240" height="170" preserveAspectRatio="xMidYMid slice" clip-path="url(#clip0_0)"/>
<text x="24" y="274" font-size="13" font-family="Menlo, Monaco, monospace" fill="#13212b">1. ZYMM7944-p.jpg</text>
<text x="24" y="290" font-size="10" font-family="PingFang SC, Helvetica, Arial" fill="#607181">车站 · 铁路 · 城市 · 夜景</text>
<clipPath id="clip0_1"><rect x="276" y="86" rx="12" ry="12" width="240" height="170"/></clipPath>
<rect x="276" y="86" rx="12" ry="12" width="240" height="170" fill="#dfe7eb" stroke="#d0d9de"/>
<image xlink:href="file:///Users/azhangyiming666/Downloads/Codex/assets/photos/ZYMM7952-p.jpg" href="file:///Users/azhangyiming666/Downloads/Codex/assets/photos/ZYMM7952-p.jpg" x="276" y="86" width="240" height="170" preserveAspectRatio="xMidYMid slice" clip-path="url(#clip0_1)"/>
<text x="282" y="274" font-size="13" font-family="Menlo, Monaco, monospace" fill="#13212b">2. ZYMM7952-p.jpg</text>
<text x="282" y="290" font-size="10" font-family="PingFang SC, Helvetica, Arial" fill="#607181">车站 · 铁路 · 城市 · 夜景</text>
<clipPath id="clip0_2"><rect x="18" y="314" rx="12" ry="12" width="240" height="170"/></clipPath>
<rect x="18" y="314" rx="12" ry="12" width="240" height="170" fill="#dfe7eb" stroke="#d0d9de"/>
<image xlink:href="file:///Users/azhangyiming666/Downloads/Codex/assets/photos/ZYMM7971-p.jpg" href="file:///Users/azhangyiming666/Downloads/Codex/assets/photos/ZYMM7971-p.jpg" x="18" y="314" width="240" height="170" preserveAspectRatio="xMidYMid slice" clip-path="url(#clip0_2)"/>
<text x="24" y="502" font-size="13" font-family="Menlo, Monaco, monospace" fill="#13212b">3. ZYMM7971-p.jpg</text>
<text x="24" y="518" font-size="10" font-family="PingFang SC, Helvetica, Arial" fill="#607181">车站 · 铁路 · 城市 · 夜景</text>
<clipPath id="clip0_3"><rect x="276" y="314" rx="12" ry="12" width="240" height="170"/></clipPath>
<rect x="276" y="314" rx="12" ry="12" width="240" height="170" fill="#dfe7eb" stroke="#d0d9de"/>
<image xlink:href="file:///Users/azhangyiming666/Downloads/Codex/assets/photos/ZYMM7976-p.jpg" href="file:///Users/azhangyiming666/Downloads/Codex/assets/photos/ZYMM7976-p.jpg" x="276" y="314" width="240" height="170" preserveAspectRatio="xMidYMid slice" clip-path="url(#clip0_3)"/>
<text x="282" y="502" font-size="13" font-family="Menlo, Monaco, monospace" fill="#13212b">4. ZYMM7976-p.jpg</text>
<text x="282" y="518" font-size="10" font-family="PingFang SC, Helvetica, Arial" fill="#607181">车站 · 铁路 · 城市 · 夜景</text>
</svg>