<svg xmlns="http://www.w3.org/2000/svg" xmlns:xlink="http://www.w3.org/1999/xlink" width="534" height="1016" viewBox="0 0 534 1016">
<rect width="100%" height="100%" fill="#f4f7f8"/>
<text x="18" y="32" font-size="24" font-family="PingFang SC, Helvetica, Arial" fill="#13212b">上海国际赛车场 · 7/7</text>
<text x="18" y="58" font-size="14" font-family="PingFang SC, Helvetica, Arial" fill="#607181">嘉定区 · 2026.03.14</text>
<clipPath id="clip6_0"><rect x="18" y="86" rx="12" ry="12" width="240" height="170"/></clipPath>
<rect x="18" y="86" rx="12" ry="12" width="240" height="170" fill="#dfe7eb" stroke="#d0d9de"/>
<image xlink:href="file:///Users/azhangyiming666/Downloads/Codex/assets/photos/ZYMM9592-p.jpg" href="file:///Users/azhangyiming666/Downloads/Codex/assets/photos/ZYMM9592-p.jpg" x="18" y="86" width="240" height="170" preserveAspectRatio="xMidYMid slice" clip-path="url(#clip6_0)"/>
<text x="24" y="274" font-size="13" font-family="Menlo, Monaco, monospace" fill="#13212b">49. ZYMM9592-p.jpg</text>
<text x="24" y="290" font-size="10" font-family="PingFang SC, Helvetica, Arial" fill="#607181">赛车 · 赛道 · 上海国际赛车场 · 速度</text>
<clipPath id="clip6_1"><rect x="276" y="86" rx="12" ry="12" width="240" height="170"/></clipPath>
<rect x="276" y="86" rx="12" ry="12" width="240" height="170" fill="#dfe7eb" stroke="#d0d9de"/>
<image xlink:href="file:///Users/azhangyiming666/Downloads/Codex/assets/photos/ZYMM9594-p.jpg" href="file:///Users/azhangyiming666/Downloads/Codex/assets/photos/ZYMM9594-p.jpg" x="276" y="86" width="240" height="170" preserveAspectRatio="xMidYMid slice" clip-path="url(#clip6_1)"/>
<text x="282" y="274" font-size="13" font-family="Menlo, Monaco, monospace" fill="#13212b">50. ZYMM9594-p.jpg</text>
<text x="282" y="290" font-size="10" font-family="PingFang SC, Helvetica, Arial" fill="#607181">赛车 · 赛道 · 上海国际赛车场 · 速度</text>
<clipPath id="clip6_2"><rect x="18" y="314" rx="12" ry="12" width="240" height="170"/></clipPath>
<rect x="18" y="314" rx="12" ry="12" width="240" height="170" fill="#dfe7eb" stroke="#d0d9de"/>
<image xlink:href="file:///Users/azhangyiming666/Downloads/Codex/assets/photos/ZYMM9897-p.jpg" href="file:///Users/azhangyiming666/Downloads/Codex/assets/photos/ZYMM9897-p.jpg" x="18" y="314" width="240" height="170" preserveAspectRatio="xMidYMid slice" clip-path="url(#clip6_2)"/>
<text x="24" y="502" font-size="13" font-family="Menlo, Monaco, monospace" fill="#13212b">51. ZYMM9897-p.jpg</text>
<text x="24" y="518" font-size="10" font-family="PingFang SC, Helvetica, Arial" fill="#607181">赛车 · 赛道 · 上海国际赛车场 · 速度</text>
<clipPath id="clip6_3"><rect x="276" y="314" rx="12" ry="12" width="240" height="170"/></clipPath>
<rect x="276" y="314" rx="12" ry="12" width="240" height="170" fill="#dfe7eb" stroke="#d0d9de"/>
<image xlink:href="file:///Users/azhangyiming666/Downloads/Codex/assets/photos/ZYMM9906-p.jpg" href="file:///Users/azhangyiming666/Downloads/Codex/assets/photos/ZYMM9906-p.jpg" x="276" y="314" width="240" height="170" preserveAspectRatio="xMidYMid slice" clip-path="url(#clip6_3)"/>
<text x="282" y="502" font-size="13" font-family="Menlo, Monaco, monospace" fill="#13212b">52. ZYMM9906-p.jpg</text>
<text x="282" y="518" font-size="10" font-family="PingFang SC, Helvetica, Arial" fill="#607181">赛车 · 赛道 · 上海国际赛车场 · 速度</text>
<clipPath id="clip6_4"><rect x="18" y="542" rx="12" ry="12" width="240" height="170"/></clipPath>
<rect x="18" y="542" rx="12" ry="12" width="240" height="170" fill="#dfe7eb" stroke="#d0d9de"/>
<image xlink:href="file:///Users/azhangyiming666/Downloads/Codex/assets/photos/ZYMM9932-p.jpg" href="file:///Users/azhangyiming666/Downloads/Codex/assets/photos/ZYMM9932-p.jpg" x="18" y="542" width="240" height="170" preserveAspectRatio="xMidYMid slice" clip-path="url(#clip6_4)"/>
<text x="24" y="730" font-size="13" font-family="Menlo, Monaco, monospace" fill="#13212b">53. ZYMM9932-p.jpg</text>
<text x="24" y="746" font-size="10" font-family="PingFang SC, Helvetica, Arial" fill="#607181">赛车 · 赛道 · 上海国际赛车场 · 速度</text>
<clipPath id="clip6_5"><rect x="276" y="542" rx="12" ry="12" width="240" height="170"/></clipPath>
<rect x="276" y="542" rx="12" ry="12" width="240" height="170" fill="#dfe7eb" stroke="#d0d9de"/>
<image xlink:href="file:///Users/azhangyiming666/Downloads/Codex/assets/photos/ZYMM9937-p.jpg" href="file:///Users/azhangyiming666/Downloads/Codex/assets/photos/ZYMM9937-p.jpg" x="276" y="542" width="240" height="170" preserveAspectRatio="xMidYMid slice" clip-path="url(#clip6_5)"/>
<text x="282" y="730" font-size="13" font-family="Menlo, Monaco, monospace" fill="#13212b">54. ZYMM9937-p.jpg</text>
<text x="282" y="746" font-size="10" font-family="PingFang SC, Helvetica, Arial" fill="#607181">赛车 · 赛道 · 上海国际赛车场 · 速度</text>
<clipPath id="clip6_6"><rect x="18" y="770" rx="12" ry="12" width="240" height="170"/></clipPath>
<rect x="18" y="770" rx="12" ry="12" width="240" height="170" fill="#dfe7eb" stroke="#d0d9de"/>
<image xlink:href="file:///Users/azhangyiming666/Downloads/Codex/assets/photos/ZYMM9955-p.jpg" href="file:///Users/azhangyiming666/Downloads/Codex/assets/photos/ZYMM9955-p.jpg" x="18" y="770" width="240" height="170" preserveAspectRatio="xMidYMid slice" clip-path="url(#clip6_6)"/>
<text x="24" y="958" font-size="13" font-family="Menlo, Monaco, monospace" fill="#13212b">55. ZYMM9955-p.jpg</text>
<text x="24" y="974" font-size="10" font-family="PingFang SC, Helvetica, Arial" fill="#607181">赛车 · 赛道 · 上海国际赛车场 · 速度</text>
<clipPath id="clip6_7"><rect x="276" y="770" rx="12" ry="12" width="240" height="170"/></clipPath>
<rect x="276" y="770" rx="12" ry="12" width="240" height="170" fill="#dfe7eb" stroke="#d0d9de"/>
<image xlink:href="file:///Users/azhangyiming666/Downloads/Codex/assets/photos/ZYMM9970-p.jpg" href="file:///Users/azhangyiming666/Downloads/Codex/assets/photos/ZYMM9970-p.jpg" x="276" y="770" width="240" height="170" preserveAspectRatio="xMidYMid slice" clip-path="url(#clip6_7)"/>
<text x="282" y="958" font-size="13" font-family="Menlo, Monaco, monospace" fill="#13212b">56. ZYMM9970-p.jpg</text>
<text x="282" y="974" font-size="10" font-family="PingFang SC, Helvetica, Arial" fill="#607181">赛车 · 赛道 · 上海国际赛车场 · 速度</text>
</svg>