<svg xmlns="http://www.w3.org/2000/svg" xmlns:xlink="http://www.w3.org/1999/xlink" width="534" height="1016" viewBox="0 0 534 1016">
<rect width="100%" height="100%" fill="#f4f7f8"/>
<text x="18" y="32" font-size="24" font-family="PingFang SC, Helvetica, Arial" fill="#13212b">天一阁博物馆 · 1/1</text>
<text x="18" y="58" font-size="14" font-family="PingFang SC, Helvetica, Arial" fill="#607181">浙江 · 宁波 · 2026.02.02</text>
<clipPath id="clip0_0"><rect x="18" y="86" rx="12" ry="12" width="240" height="170"/></clipPath>
<rect x="18" y="86" rx="12" ry="12" width="240" height="170" fill="#dfe7eb" stroke="#d0d9de"/>
<image xlink:href="file:///Users/azhangyiming666/Downloads/Codex/assets/photos/ZYMM6393.jpg" href="file:///Users/azhangyiming666/Downloads/Codex/assets/photos/ZYMM6393.jpg" x="18" y="86" width="240" height="170" preserveAspectRatio="xMidYMid slice" clip-path="url(#clip0_0)"/>
<text x="24" y="274" font-size="13" font-family="Menlo, Monaco, monospace" fill="#13212b">1. ZYMM6393.jpg</text>
<text x="24" y="290" font-size="10" font-family="PingFang SC, Helvetica, Arial" fill="#607181">博物馆 · 园林 · 建筑 · 水景</text>
<clipPath id="clip0_1"><rect x="276" y="86" rx="12" ry="12" width="240" height="170"/></clipPath>
<rect x="276" y="86" rx="12" ry="12" width="240" height="170" fill="#dfe7eb" stroke="#d0d9de"/>
<image xlink:href="file:///Users/azhangyiming666/Downloads/Codex/assets/photos/ZYMM6395.jpg" href="file:///Users/azhangyiming666/Downloads/Codex/assets/photos/ZYMM6395.jpg" x="276" y="86" width="240" height="170" preserveAspectRatio="xMidYMid slice" clip-path="url(#clip0_1)"/>
<text x="282" y="274" font-size="13" font-family="Menlo, Monaco, monospace" fill="#13212b">2. ZYMM6395.jpg</text>
<text x="282" y="290" font-size="10" font-family="PingFang SC, Helvetica, Arial" fill="#607181">博物馆 · 园林 · 建筑 · 水景</text>
<clipPath id="clip0_2"><rect x="18" y="314" rx="12" ry="12" width="240" height="170"/></clipPath>
<rect x="18" y="314" rx="12" ry="12" width="240" height="170" fill="#dfe7eb" stroke="#d0d9de"/>
<image xlink:href="file:///Users/azhangyiming666/Downloads/Codex/assets/photos/ZYMM6403.jpg" href="file:///Users/azhangyiming666/Downloads/Codex/assets/photos/ZYMM6403.jpg" x="18" y="314" width="240" height="170" preserveAspectRatio="xMidYMid slice" clip-path="url(#clip0_2)"/>
<text x="24" y="502" font-size="13" font-family="Menlo, Monaco, monospace" fill="#13212b">3. ZYMM6403.jpg</text>
<text x="24" y="518" font-size="10" font-family="PingFang SC, Helvetica, Arial" fill="#607181">博物馆 · 园林 · 建筑 · 水景</text>
<clipPath id="clip0_3"><rect x="276" y="314" rx="12" ry="12" width="240" height="170"/></clipPath>
<rect x="276" y="314" rx="12" ry="12" width="240" height="170" fill="#dfe7eb" stroke="#d0d9de"/>
<image xlink:href="file:///Users/azhangyiming666/Downloads/Codex/assets/photos/ZYMM6415.jpg" href="file:///Users/azhangyiming666/Downloads/Codex/assets/photos/ZYMM6415.jpg" x="276" y="314" width="240" height="170" preserveAspectRatio="xMidYMid slice" clip-path="url(#clip0_3)"/>
<text x="282" y="502" font-size="13" font-family="Menlo, Monaco, monospace" fill="#13212b">4. ZYMM6415.jpg</text>
<text x="282" y="518" font-size="10" font-family="PingFang SC, Helvetica, Arial" fill="#607181">博物馆 · 园林 · 建筑 · 水景</text>
<clipPath id="clip0_4"><rect x="18" y="542" rx="12" ry="12" width="240" height="170"/></clipPath>
<rect x="18" y="542" rx="12" ry="12" width="240" height="170" fill="#dfe7eb" stroke="#d0d9de"/>
<image xlink:href="file:///Users/azhangyiming666/Downloads/Codex/assets/photos/ZYMM6423.jpg" href="file:///Users/azhangyiming666/Downloads/Codex/assets/photos/ZYMM6423.jpg" x="18" y="542" width="240" height="170" preserveAspectRatio="xMidYMid slice" clip-path="url(#clip0_4)"/>
<text x="24" y="730" font-size="13" font-family="Menlo, Monaco, monospace" fill="#13212b">5. ZYMM6423.jpg</text>
<text x="24" y="746" font-size="10" font-family="PingFang SC, Helvetica, Arial" fill="#607181">博物馆 · 园林 · 建筑 · 水景</text>
<clipPath id="clip0_5"><rect x="276" y="542" rx="12" ry="12" width="240" height="170"/></clipPath>
<rect x="276" y="542" rx="12" ry="12" width="240" height="170" fill="#dfe7eb" stroke="#d0d9de"/>
<image xlink:href="file:///Users/azhangyiming666/Downloads/Codex/assets/photos/ZYMM6424.jpg" href="file:///Users/azhangyiming666/Downloads/Codex/assets/photos/ZYMM6424.jpg" x="276" y="542" width="240" height="170" preserveAspectRatio="xMidYMid slice" clip-path="url(#clip0_5)"/>
<text x="282" y="730" font-size="13" font-family="Menlo, Monaco, monospace" fill="#13212b">6. ZYMM6424.jpg</text>
<text x="282" y="746" font-size="10" font-family="PingFang SC, Helvetica, Arial" fill="#607181">博物馆 · 园林 · 建筑 · 水景</text>
<clipPath id="clip0_6"><rect x="18" y="770" rx="12" ry="12" width="240" height="170"/></clipPath>
<rect x="18" y="770" rx="12" ry="12" width="240" height="170" fill="#dfe7eb" stroke="#d0d9de"/>
<image xlink:href="file:///Users/azhangyiming666/Downloads/Codex/assets/photos/ZYMM6446.jpg" href="file:///Users/azhangyiming666/Downloads/Codex/assets/photos/ZYMM6446.jpg" x="18" y="770" width="240" height="170" preserveAspectRatio="xMidYMid slice" clip-path="url(#clip0_6)"/>
<text x="24" y="958" font-size="13" font-family="Menlo, Monaco, monospace" fill="#13212b">7. ZYMM6446.jpg</text>
<text x="24" y="974" font-size="10" font-family="PingFang SC, Helvetica, Arial" fill="#607181">博物馆 · 园林 · 建筑 · 水景</text>
<clipPath id="clip0_7"><rect x="276" y="770" rx="12" ry="12" width="240" height="170"/></clipPath>
<rect x="276" y="770" rx="12" ry="12" width="240" height="170" fill="#dfe7eb" stroke="#d0d9de"/>
<image xlink:href="file:///Users/azhangyiming666/Downloads/Codex/assets/photos/ZYMM6448.jpg" href="file:///Users/azhangyiming666/Downloads/Codex/assets/photos/ZYMM6448.jpg" x="276" y="770" width="240" height="170" preserveAspectRatio="xMidYMid slice" clip-path="url(#clip0_7)"/>
<text x="282" y="958" font-size="13" font-family="Menlo, Monaco, monospace" fill="#13212b">8. ZYMM6448.jpg</text>
<text x="282" y="974" font-size="10" font-family="PingFang SC, Helvetica, Arial" fill="#607181">博物馆 · 园林 · 建筑 · 水景</text>
</svg>